<?xml version="1.0" encoding="UTF-8"?>
<svg version="1.1" xmlns="http://www.w3.org/2000/svg" width="221" height="135">
<path d="M0 0 C72.93 0 145.86 0 221 0 C221 44.55 221 89.1 221 135 C148.07 135 75.14 135 0 135 C0 90.45 0 45.9 0 0 Z " fill="#FBFAFA" transform="translate(0,0)"/>
<path d="M0 0 C72.93 0 145.86 0 221 0 C221 44.55 221 89.1 221 135 C148.07 135 75.14 135 0 135 C0 90.45 0 45.9 0 0 Z M51.6875 31.3125 C47.62575257 36.07171921 45.15714173 41.15737726 43 47 C42.75378906 47.66644531 42.50757813 48.33289062 42.25390625 49.01953125 C40.37242434 55.18300646 40.8250528 61.62414662 41 68 C40.34515625 67.93039063 39.6903125 67.86078125 39.015625 67.7890625 C30.23486545 67.26816998 23.01133735 69.76647554 16.23828125 75.48828125 C11.3038864 80.9857602 9.35748988 87.25604252 9.578125 94.50390625 C10.561646 100.32307215 14.53897744 105.2824812 19 109 C21.88265149 109.96088383 23.67662271 110.11670941 26.66796875 110.09765625 C27.56064453 110.09443359 28.45332031 110.09121094 29.37304688 110.08789062 C30.76620117 110.07532227 30.76620117 110.07532227 32.1875 110.0625 C33.12787109 110.05798828 34.06824219 110.05347656 35.03710938 110.04882812 C37.35813712 110.03704626 39.67903644 110.02059558 42 110 C42.19916016 111.13115234 42.19916016 111.13115234 42.40234375 112.28515625 C43.90019082 119.08910211 47.44983479 122.78168926 52.90234375 126.73828125 C59.58157436 130.75577005 66.8175567 131.16392579 74.3828125 129.46484375 C81.44428302 127.0080964 85.19641571 123.12133895 89.08203125 117 C90.27809575 114.76087394 90.27809575 114.76087394 90 111 C104.52 111 119.04 111 134 111 C134.33 112.98 134.66 114.96 135 117 C137.88372697 122.88450559 142.30136539 126.51837975 148.21875 129.15625 C155.15967602 131.26192419 162.61127389 130.92751532 169.2578125 127.9765625 C174.51408286 125.03022261 178.10871806 121.2471413 181 116 C181.37792952 114.00794569 181.71794816 112.00787397 182 110 C182.845625 110.02320312 183.69125 110.04640625 184.5625 110.0703125 C193.79028429 110.21711816 201.59837429 110.22409435 209 104 C213.9430984 97.88616776 213.80893828 91.64545322 213 84 C210.67818097 77.15674391 205.304466 72.32417298 199 69 C195.02554114 68.09925836 191.0432245 67.49722502 187 67 C187.04640625 66.3915625 187.0928125 65.783125 187.140625 65.15625 C187.67176398 52.2571606 184.41912486 38.75314052 176.1015625 28.70703125 C162.73989189 14.30826346 143.43430404 8.92829435 124.32641602 7.77905273 C120.46488091 7.66156788 116.6133025 7.61950387 112.75 7.625 C111.73185715 7.62631424 111.73185715 7.62631424 110.69314575 7.62765503 C87.25278065 7.72725168 68.25584189 14.00367356 51.6875 31.3125 Z " fill="#FDFDFD" transform="translate(0,0)"/>
<path d="M0 0 C0.68004089 0.00398804 1.36008179 0.00797607 2.06072998 0.01208496 C12.2510404 0.08214204 21.83522557 0.66035906 31.6875 3.375 C33.37746094 3.79265625 33.37746094 3.79265625 35.1015625 4.21875 C48.43848683 7.84189572 60.89094457 14.9973995 68.3125 27.00390625 C73.31356529 37.22929868 75.29982272 48.0583689 74.6875 59.375 C75.44933594 59.44976562 76.21117187 59.52453125 76.99609375 59.6015625 C84.44925785 60.55065456 90.1145725 62.16809105 95.6875 67.375 C97.40289795 69.66696226 98.47553873 71.74908391 99.6875 74.375 C100.0175 75.035 100.3475 75.695 100.6875 76.375 C101.3941063 83.50162927 101.66093577 89.87243346 97.2421875 95.7890625 C92.17703514 100.95602697 86.3339529 102.27117161 79.2578125 102.47265625 C78.12085938 102.46105469 76.98390625 102.44945313 75.8125 102.4375 C74.08386719 102.42396484 74.08386719 102.42396484 72.3203125 102.41015625 C71.01707031 102.39275391 71.01707031 102.39275391 69.6875 102.375 C69.48125 103.365 69.275 104.355 69.0625 105.375 C67.29511583 111.46814963 63.53316232 116.5653972 58.0625 119.8125 C51.06808017 123.05065733 43.35035436 123.76864642 35.890625 121.5390625 C29.98823519 118.87404407 25.57175675 115.26058665 22.6875 109.375 C22.3575 107.395 22.0275 105.415 21.6875 103.375 C7.1675 103.375 -7.3525 103.375 -22.3125 103.375 C-22.6425 105.355 -22.9725 107.335 -23.3125 109.375 C-26.63600371 115.64281572 -31.34779288 119.84178163 -38.171875 121.94921875 C-46.06425466 123.51905339 -53.09633788 122.91809522 -60.1171875 118.93359375 C-64.96550766 115.49145898 -68.69836664 111.1858801 -70.3125 105.375 C-70.3125 104.385 -70.3125 103.395 -70.3125 102.375 C-70.89217529 102.39071045 -71.47185059 102.4064209 -72.0690918 102.42260742 C-74.71262739 102.48522791 -77.35600655 102.52407518 -80 102.5625 C-80.91201172 102.58763672 -81.82402344 102.61277344 -82.76367188 102.63867188 C-87.77406575 102.69333072 -91.28060633 102.70637161 -95.3125 99.375 C-100.52716409 93.67525088 -102.87667314 89.80202307 -102.68359375 82.1015625 C-101.77750086 75.44416424 -98.7004128 70.08434763 -93.4375 65.9375 C-85.97405093 61.03135936 -80.12381985 59.94479089 -71.3125 60.375 C-71.35890625 59.58738281 -71.4053125 58.79976562 -71.453125 57.98828125 C-71.90114 44.46782847 -68.21386613 32.74638806 -59.5703125 22.26171875 C-43.91186105 5.53121564 -22.23864091 -0.23591009 0 0 Z M-39.3125 11.375 C-40.16457031 11.82875 -41.01664063 12.2825 -41.89453125 12.75 C-54.93601641 20.12214522 -63.09967255 29.64348833 -67.6328125 43.9921875 C-68.92189131 50.40794755 -68.60985564 56.86621554 -68.3125 63.375 C-68.91835937 63.34019531 -69.52421875 63.30539063 -70.1484375 63.26953125 C-78.67735819 62.9939815 -85.94607946 64.11438812 -92.75 69.5625 C-97.03543347 73.70045904 -99.17433624 77.68225938 -99.3984375 83.671875 C-99.0141356 89.69934694 -97.05112861 93.9239783 -92.47363281 98.02075195 C-89.92187322 99.6197816 -88.53232951 99.72538134 -85.546875 99.66796875 C-84.65742187 99.65830078 -83.76796875 99.64863281 -82.8515625 99.63867188 C-81.93117188 99.61353516 -81.01078125 99.58839844 -80.0625 99.5625 C-79.12664062 99.54896484 -78.19078125 99.53542969 -77.2265625 99.52148438 C-74.92128673 99.48619954 -72.6171894 99.43690281 -70.3125 99.375 C-70.20043213 98.66907715 -70.08836426 97.9631543 -69.97290039 97.23583984 C-68.6008614 88.92525031 -65.51900296 84.13328098 -59.19140625 78.671875 C-53.34968677 74.63975262 -47.17410007 74.55468418 -40.3125 75.375 C-32.50902016 77.81972655 -27.54310047 82.30987998 -23.21875 89.08984375 C-22.3125 91.375 -22.3125 91.375 -21.3125 99.375 C-7.4525 99.375 6.4075 99.375 20.6875 99.375 C21.3475 96.075 22.0075 92.775 22.6875 89.375 C26.88931253 82.47202226 31.55770828 78.93989586 38.6875 75.375 C47.94112853 74.18438656 55.00738476 76.11895755 62.6875 81.375 C67.81105052 85.96275439 68.79823255 91.77849367 69.6875 98.375 C72.2090021 98.45672936 74.72779917 98.51583373 77.25 98.5625 C77.95447266 98.58763672 78.65894531 98.61277344 79.38476562 98.63867188 C84.57795576 98.71046713 88.07739424 97.80410454 92.6875 95.375 C97.30833343 90.51096481 98.04999843 86.4415471 97.96484375 79.94140625 C97.38903244 74.61312417 94.73283335 71.47011113 91.0625 67.625 C85.0814429 63.03699923 78.00650959 62.20437278 70.6875 62.375 C70.71070313 61.41980469 70.73390625 60.46460938 70.7578125 59.48046875 C70.95110903 45.63215324 69.98801383 32.84463527 60.4921875 21.828125 C52.32588405 14.00317829 42.85646591 9.84012083 32.1875 6.5625 C31.52419678 6.3552832 30.86089355 6.14806641 30.17749023 5.93457031 C8.84108625 -0.17848081 -19.70256826 0.80425578 -39.3125 11.375 Z " fill="#191717" transform="translate(112.3125,7.625)"/>
<path d="M0 0 C4.84663057 2.77992355 8.24078724 7.19122339 10.3359375 12.33984375 C11.26863101 19.21232222 11.00685836 24.97836653 6.828125 30.65625 C2.52894061 35.50690045 -1.9102937 38.79460359 -8.4609375 39.74609375 C-16.1767204 39.99103924 -20.97913705 38.66437515 -26.6640625 33.33984375 C-31.42482366 27.92833107 -33.11014616 23.14787923 -32.99609375 16.03515625 C-32.29863104 10.37340012 -29.79795527 6.11871058 -25.43359375 2.48046875 C-16.81976793 -3.42133687 -9.58530096 -4.14379934 0 0 Z " fill="#F1F0F0" transform="translate(168.6640625,87.66015625)"/>
<path d="M0 0 C5.81355828 3.20748043 8.95653376 6.84400424 11.0390625 13.125 C12.19717358 19.72272372 10.64467585 25.53262011 7.0390625 31.125 C3.13518324 35.36401506 -1.08933782 38.76415083 -6.9140625 39.49609375 C-15.43830997 39.66779068 -20.32349717 38.5602955 -26.484375 32.66796875 C-31.14952191 27.55788008 -32.45492561 22.16743352 -32.2734375 15.4296875 C-31.52728045 9.92677923 -29.01755336 6.18161586 -25.1484375 2.3125 C-16.45785593 -3.65162461 -9.32780157 -4.61581933 0 0 Z " fill="#F1F0F1" transform="translate(76.9609375,87.875)"/>
<path d="M0 0 C12.7508655 0 26.26030602 0.30798381 35.90234375 9.890625 C42.5135267 17.19131783 43 20.09539513 43 31 C28.81 31 14.62 31 0 31 C0 20.77 0 10.54 0 0 Z " fill="#FCFCFB" transform="translate(120,30)"/>
<path d="M0 0 C0 10.23 0 20.46 0 31 C-13.86 31 -27.72 31 -42 31 C-42 21.8746926 -41.0117802 16.31384277 -34.78515625 9.59765625 C-24.80919513 0.66949848 -12.96360788 0 0 0 Z " fill="#FBFBFB" transform="translate(105,30)"/>
<path d="M0 0 C5.23568712 2.90947751 8.93542705 6.09942325 11.625 11.5 C12.5 15 12.5 15 12.625 17.5 C11.965 17.5 11.305 17.5 10.625 17.5 C10.77839844 18.40621094 10.93179688 19.31242187 11.08984375 20.24609375 C12.52335125 31.44166883 12.52335125 31.44166883 8.625 36.625 C3.65043435 41.96694874 -1.73690447 45.02394914 -9.0390625 45.7734375 C-16.57805189 46.0320308 -22.22327845 45.04264136 -28.375 40.5 C-32.69846433 36.13168646 -34.40526667 32.40919998 -36.375 26.5 C-50.565 26.17 -64.755 25.84 -79.375 25.5 C-79.375 24.84 -79.375 24.18 -79.375 23.5 C-65.185 23.5 -50.995 23.5 -36.375 23.5 C-36.375 20.86 -36.375 18.22 -36.375 15.5 C-34.32926818 7.62662424 -27.97295495 3.0349228 -21.625 -1.4375 C-14.04592816 -3.91527349 -7.22410066 -3.29756834 0 0 Z M-28.8125 7.9375 C-29.328125 8.783125 -29.84375 9.62875 -30.375 10.5 C-31.24125 11.8303125 -31.24125 11.8303125 -32.125 13.1875 C-34.14185933 18.53217723 -34.41951333 23.48735274 -32.53125 28.93359375 C-29.37345169 35.2598586 -24.66306615 39.35596692 -18.375 42.5 C-10.97808259 43.19417225 -4.43716718 43.14134675 1.625 38.5 C6.79618119 33.52504667 9.90129132 29.07077083 10.0625 21.75 C9.93621884 14.35353186 7.42677262 10.30177262 2.3125 5.1875 C-8.44134411 -1.56491374 -19.52073944 -1.35426056 -28.8125 7.9375 Z " fill="#1C1B1C" transform="translate(169.375,84.5)"/>
<path d="M0 0 C1 1 1 1 1.11352539 4.51000977 C1.11327431 6.07048421 1.1077134 7.6309642 1.09765625 9.19140625 C1.09664917 9.91775269 1.09564209 10.64409912 1.09460449 11.39245605 C1.08935716 14.11582001 1.075396 16.83916153 1.0625 19.5625 C1.041875 25.646875 1.02125 31.73125 1 38 C-15.17 38 -31.34 38 -48 38 C-48 26.08958541 -47.48836314 19.80279381 -40 11.25 C-29.17849636 1.27724174 -14.10761783 -0.91497371 0 0 Z M-38 14 C-43.98096484 21.27072892 -45 25.4583382 -45 35 C-31.14 35 -17.28 35 -3 35 C-3 24.77 -3 14.54 -3 4 C-16.13204561 4 -27.93713165 4.78751489 -38 14 Z " fill="#0B0807" transform="translate(108,26)"/>
<path d="M0 0 C3.3792573 2.03005291 6.22397384 4.44794768 8 8 C8.59639589 14.08323808 7.42872436 17.14264048 4 22 C-0.35304475 24.79374514 -4.9974446 24.66484529 -10 24 C-13.49996383 21.95835443 -15.80555258 19.90910064 -17 16 C-17.86709334 9.38841327 -17.86709334 9.38841327 -15.7265625 5.9609375 C-11.08766817 0.46215056 -7.26629322 -1.29204888 0 0 Z " fill="#F8F8F8" transform="translate(71,94)"/>
<path d="M0 0 C3.35604507 1.30293515 6.11608798 2.92393319 8.4375 5.75 C9.76037475 11.041499 9.73611493 14.62930324 7.1875 19.375 C4.88077967 22.14306439 3.32757153 23.84929071 -0.33984375 24.265625 C-1.19707031 24.26046875 -2.05429688 24.2553125 -2.9375 24.25 C-3.79214844 24.25515625 -4.64679688 24.2603125 -5.52734375 24.265625 C-8.19045976 23.97953987 -9.75510898 23.44382948 -12 22 C-14.94611813 18.0983841 -16.37070654 15.36742142 -16.1875 10.4375 C-15.43119005 6.02064989 -13.60677699 3.66300192 -10.02734375 1.03515625 C-6.58330962 -0.72335829 -3.74116115 -0.86560199 0 0 Z " fill="#F9F9F9" transform="translate(161,94)"/>
<path d="M0 0 C14.13223961 0 29.7903824 0.89269184 41.0234375 10.78125 C49.06555693 19.33236433 50 25.85870411 50 38 C33.5 38 17 38 0 38 C0 25.46 0 12.92 0 0 Z M3 4 C3 14.23 3 24.46 3 35 C17.19 35 31.38 35 46 35 C46 24.41283655 45.71048907 21.20072097 39.2734375 14.09375 C29.10451621 4.2177606 16.62434945 4 3 4 Z " fill="#191817" transform="translate(117,26)"/>
<path d="M0 0 C8.49788254 -0.65705277 14.95645728 -0.07281056 22 5 C25.66108213 8.43014189 29.27731199 12.22119719 31 17 C31 19.64 31 22.28 31 25 C44.86 25 58.72 25 73 25 C73 25.33 73 25.66 73 26 C58.81 26 44.62 26 30 26 C30 26.66 30 27.32 30 28 C44.19 28 58.38 28 73 28 C73 28.33 73 28.66 73 29 C58.81 29 44.62 29 30 29 C29.67 30.98 29.34 32.96 29 35 C25.92362248 40.80175894 21.8952586 44.27911142 16 47 C15.34 47 14.68 47 14 47 C13.505 45.515 13.505 45.515 13 44 C13.53109375 43.69707031 14.0621875 43.39414063 14.609375 43.08203125 C19.97724718 39.89853041 23.60352191 37.07225179 26.25 31.25 C27.79692997 24.54663681 27.77513816 18.86947424 24.3203125 12.78125 C19.94932149 6.88429172 11.91780468 3.08281938 4.87109375 1.53125 C3.25477661 1.29614932 1.62744265 1.13850576 0 1 C0 0.67 0 0.34 0 0 Z " fill="#3B3939" transform="translate(60,82)"/>
<path d="M0 0 C3.4375 1.6875 3.4375 1.6875 6 4 C6.78375 4.680625 7.5675 5.36125 8.375 6.0625 C10.88852692 10.60618329 10.73855504 14.92709672 10 20 C7.84459619 24.39063739 5.20163397 27.47901962 1 30 C-3.60797146 31.2669752 -7.14467538 31.24234197 -11.75 29.9375 C-16.01805801 27.3930808 -18.74740764 24.50518472 -21 20 C-21.54035594 15.0747885 -21.54435469 11.13058282 -19.375 6.625 C-13.55666757 0.19421152 -8.48334729 -1.2516414 0 0 Z M-17 9 C-18.41381396 12.82561425 -18.62479941 16.18739512 -17.2890625 20.0625 C-15.43058613 23.63077463 -13.70773751 25.57446193 -10 27 C-5.18465124 27.67336584 -1.24490293 27.72619338 3 25.25 C6.59489307 21.2057453 7.42172496 18.51914858 7.24609375 12.9609375 C6.87000831 9.96419323 5.95941609 8.28598544 4 6 C0.1972892 3.43538109 -3.33066138 2.31718437 -7.96875 2.53125 C-11.98787989 3.45874151 -14.63358819 5.68158344 -17 9 Z " fill="#201E1F" transform="translate(163,91)"/>
<path d="M0 0 C4.85901474 2.29698879 7.66907123 5.15884024 10 10 C10.80165291 15.0226009 10.59932381 18.80135239 8.3125 23.375 C4.45186699 27.75734017 1.93940078 30.1092711 -3.9375 30.9375 C-8.4625328 31.20604794 -11.2349774 30.71431862 -15 28 C-18.91854703 23.99626717 -21.15008488 20.89178853 -21.3125 15.25 C-21.24913295 10.36369653 -20.35632281 7.70961995 -17 4 C-11.88316413 -0.74243324 -6.65547173 -0.97203611 0 0 Z M-17 9 C-18.60632723 12.21265446 -18.47931944 15.51521812 -18 19 C-15.98497111 22.75212276 -14.54533858 24.63644095 -11 27 C-6.49757764 27.58760427 -2.31313495 27.50290275 1.9375 25.875 C5.56398296 22.57819731 6.77965726 19.34653897 7.5625 14.5625 C6.80560069 9.76880434 4.51963116 7.22784827 1 4 C-6.13822011 0.43088994 -12.15152899 3.43003033 -17 9 Z " fill="#242222" transform="translate(72,91)"/>
<path d="M0 0 C1 1 1 1 1.11352539 4.51000977 C1.11336626 6.07048422 1.10767142 7.63096393 1.09765625 9.19140625 C1.0962413 10.01124496 1.09482635 10.83108368 1.09336853 11.67576599 C1.08775289 14.30471382 1.07519779 16.93357773 1.0625 19.5625 C1.05748701 21.34049357 1.05292376 23.11848846 1.04882812 24.89648438 C1.03777839 29.26435545 1.02050331 33.63216348 1 38 C-0.32 37.34 -1.64 36.68 -3 36 C-3 25.44 -3 14.88 -3 4 C-11.415 4.495 -11.415 4.495 -20 5 C-20 4.34 -20 3.68 -20 3 C-20.99 2.67 -21.98 2.34 -23 2 C-15.34244332 0.06400373 -7.89205156 -0.51185251 0 0 Z " fill="#363535" transform="translate(108,26)"/>
<path d="M0 0 C10.59885032 0.53892459 20.69542738 3.73099989 28.41796875 11.2421875 C35.70338757 19.3370973 36.3051027 26.52480714 36 37 C35.67 37 35.34 37 35 37 C35 33.7 35 30.4 35 27 C34.34 27 33.68 27 33 27 C33 29.31 33 31.62 33 34 C32.67 34 32.34 34 32 34 C31.98582031 33.29875 31.97164062 32.5975 31.95703125 31.875 C31.51848074 23.15140067 29.15167392 17.80035155 22.875 11.75 C15.23715949 5.60287837 5.1778554 4.05836437 -4.3125 3.4375 C-5.56675781 3.35371094 -6.82101563 3.26992188 -8.11328125 3.18359375 C-9.54220703 3.09271484 -9.54220703 3.09271484 -11 3 C-11 2.67 -11 2.34 -11 2 C-5.555 1.505 -5.555 1.505 0 1 C0 0.67 0 0.34 0 0 Z " fill="#222120" transform="translate(131,27)"/>
<path d="M0 0 C0.33 0 0.66 0 1 0 C1.144375 0.763125 1.28875 1.52625 1.4375 2.3125 C1.9632594 5.08172908 1.9632594 5.08172908 3 8 C0.59665463 14.09598538 -3.12275741 17.42226202 -9 20 C-13.3379964 20.92220343 -17.44733432 21.10768026 -21.875 21.0625 C-23.02742187 21.05347656 -24.17984375 21.04445313 -25.3671875 21.03515625 C-26.23601562 21.02355469 -27.10484375 21.01195313 -28 21 C-28.33 21.66 -28.66 22.32 -29 23 C-30 22 -30 22 -30.09765625 19.93359375 C-30.08605469 19.10988281 -30.07445312 18.28617188 -30.0625 17.4375 C-30.05347656 16.61121094 -30.04445312 15.78492187 -30.03515625 14.93359375 C-30.02355469 14.29550781 -30.01195312 13.65742187 -30 13 C-29.34 13 -28.68 13 -28 13 C-28 14.32 -28 15.64 -28 17 C-25.47765681 16.91218733 -22.9584835 16.80521993 -20.4375 16.6875 C-19.73302734 16.66494141 -19.02855469 16.64238281 -18.30273438 16.61914062 C-12.63479453 16.3318257 -7.55140263 15.28746443 -3.1875 11.375 C-1.38131237 7.76262474 -0.71827428 3.95473369 0 0 Z " fill="#181516" transform="translate(210,89)"/>
<path d="M0 0 C0.33 0 0.66 0 1 0 C1 3.63 1 7.26 1 11 C0.0821875 11.10957031 -0.835625 11.21914062 -1.78125 11.33203125 C-15.22253779 12.74490864 -15.22253779 12.74490864 -25.61328125 20.6171875 C-28.57420416 25.70497052 -30.24676515 31.40671538 -32 37 C-32.33 37 -32.66 37 -33 37 C-33.74315164 29.23819403 -32.58331631 23.41000035 -28 17 C-22.72229955 11.75542319 -16.12771486 7.8523869 -8.5625 7.8125 C-6.7990625 7.9053125 -6.7990625 7.9053125 -5 8 C-5 8.33 -5 8.66 -5 9 C-2.525 9.495 -2.525 9.495 0 10 C0 6.7 0 3.4 0 0 Z " fill="#222021" transform="translate(43,60)"/>
<path d="M0 0 C0.66 0 1.32 0 2 0 C2 3.3 2 6.6 2 10 C-11.86 10 -25.72 10 -40 10 C-39.34 9.01 -38.68 8.02 -38 7 C-35.09165115 6.73339817 -32.39861732 6.65220876 -29.4921875 6.70703125 C-28.65156769 6.71127609 -27.81094788 6.71552094 -26.94485474 6.71989441 C-24.25458007 6.73671468 -21.56504901 6.77437219 -18.875 6.8125 C-17.05339622 6.82754255 -15.23178072 6.8412317 -13.41015625 6.85351562 C-8.93981676 6.88662906 -4.47003454 6.93843363 0 7 C0 4.69 0 2.38 0 0 Z " fill="#0A0807" transform="translate(164,54)"/>
<path d="M0 0 C0 0.66 0 1.32 0 2 C-0.58007812 2.01417969 -1.16015625 2.02835937 -1.7578125 2.04296875 C-7.8589386 2.41547975 -10.72258464 3.61564925 -15 8 C-16.60725691 11.21451382 -16.47397924 14.51333076 -16 18 C-13.91638749 21.94398082 -11.75312548 24.58727648 -8 27 C-8.33 27.66 -8.66 28.32 -9 29 C-14.02898754 27.56314642 -15.95677502 25.05763331 -19 21 C-20.857304 17.285392 -20.44282906 13.05406882 -20 9 C-15.50505985 -0.33564492 -9.4526884 -1.71867062 0 0 Z " fill="#191718" transform="translate(71,92)"/>
<path d="M0 0 C0.33 0.66 0.66 1.32 1 2 C3.08994191 2.31776657 3.08994191 2.31776657 5.5625 2.375 C13.40459909 3.02477392 18.86575236 5.98559562 24 12 C26.82275483 16.33494491 28.12878307 18.95492071 28.0625 24.125 C28.05347656 25.03507812 28.04445312 25.94515625 28.03515625 26.8828125 C28.02355469 27.58148438 28.01195312 28.28015625 28 29 C27.34 29.33 26.68 29.66 26 30 C25.84144531 29.13117188 25.68289062 28.26234375 25.51953125 27.3671875 C23.75290528 18.07489954 23.75290528 18.07489954 18 11 C12.06417261 7.48552002 5.75451471 6.07169753 -1 5 C-0.67 3.35 -0.34 1.7 0 0 Z " fill="#201F20" transform="translate(185,65)"/>
<path d="M0 0 C-0.33 0.99 -0.66 1.98 -1 3 C-3.51171875 4.2109375 -3.51171875 4.2109375 -6.6875 5.375 C-13.65805328 8.15329882 -18.51228244 10.92927957 -22.1875 17.8203125 C-23.88193594 22.36596277 -24.40188396 27.20720174 -25 32 C-25.99 31.34 -26.98 30.68 -28 30 C-29.12162924 22.14859535 -26.14722499 16.21809895 -21.49609375 9.984375 C-16.0726774 3.97287736 -8.23339063 -0.49043663 0 0 Z " fill="#1C1A1A" transform="translate(88,29)"/>
<path d="M0 0 C0.33 0 0.66 0 1 0 C1.06058594 0.72445312 1.12117188 1.44890625 1.18359375 2.1953125 C1.61483433 7.17116533 2.07047641 12.08680391 3 17 C2.01 17 1.02 17 0 17 C-0.66 15.02 -1.32 13.04 -2 11 C-16.19 10.67 -30.38 10.34 -45 10 C-45 9.34 -45 8.68 -45 8 C-30.81 8 -16.62 8 -2 8 C-1.67 5.69 -1.34 3.38 -1 1 C-0.67 0.67 -0.34 0.34 0 0 Z " fill="#060504" transform="translate(135,100)"/>
<path d="M0 0 C2 3 2 3 3.25 5.875 C5.93079747 10.66213834 9.85673222 13.95690572 15 16 C17.40837755 16.28878735 19.82810468 16.49045026 22.25 16.625 C23.51328125 16.69976562 24.7765625 16.77453125 26.078125 16.8515625 C27.04234375 16.90054688 28.0065625 16.94953125 29 17 C29 17.66 29 18.32 29 19 C24.08551322 21.45724339 17.29681797 20.71335711 12.1953125 19.12890625 C6.64980053 16.55841818 2.25307239 13.24987699 -1 8 C-1 7.34 -1 6.68 -1 6 C-0.34 6 0.32 6 1 6 C0.67 4.02 0.34 2.04 0 0 Z " fill="#141314" transform="translate(45,110)"/>
<path d="M0 0 C0 0.33 0 0.66 0 1 C-0.95712891 1.07347656 -0.95712891 1.07347656 -1.93359375 1.1484375 C-2.75988281 1.22320312 -3.58617187 1.29796875 -4.4375 1.375 C-5.67306641 1.47941406 -5.67306641 1.47941406 -6.93359375 1.5859375 C-7.61550781 1.72257812 -8.29742187 1.85921875 -9 2 C-9.33 2.66 -9.66 3.32 -10 4 C-11.56509547 4.74776783 -13.15253178 5.44914806 -14.75 6.125 C-19.48385083 8.39048575 -21.66149711 10.61383451 -24.0625 15.23046875 C-25.49612314 17.93643243 -27.84703128 19.84703128 -30 22 C-29.68153024 14.35672564 -26.00991846 9.78417457 -20.5 4.6875 C-19.2625 3.8521875 -19.2625 3.8521875 -18 3 C-17.154375 2.4225 -16.30875 1.845 -15.4375 1.25 C-10.33150239 -0.6067264 -5.37661567 -0.23490068 0 0 Z " fill="#292727" transform="translate(163,82)"/>
<path d="M0 0 C1.96108714 2.94163071 3.35771168 5.85240237 4.8046875 9.0625 C6.26343857 11.42701153 7.65508756 12.51183297 10 14 C12.30746465 14.49651796 12.30746465 14.49651796 14.765625 14.51171875 C15.65507812 14.54716797 16.54453125 14.58261719 17.4609375 14.61914062 C18.38132812 14.64169922 19.30171875 14.66425781 20.25 14.6875 C21.65378906 14.73874023 21.65378906 14.73874023 23.0859375 14.79101562 C25.39050533 14.87332162 27.69470119 14.9425263 30 15 C30 15.33 30 15.66 30 16 C24.06 16 18.12 16 12 16 C12 16.66 12 17.32 12 18 C6.08215617 16.73189061 3.41406916 13.7151965 0 9 C-1.36623674 6.26752652 -1.128426 4.01801098 -1 1 C-0.67 0.67 -0.34 0.34 0 0 Z " fill="#1B191A" transform="translate(12,92)"/>
<path d="M0 0 C0.66 0 1.32 0 2 0 C2.45858928 5.73236598 1.65645061 8.55296547 -2 13 C-6.18897539 17.42834541 -10.18131607 17.74646257 -16 18 C-16.33 17.01 -16.66 16.02 -17 15 C-16.40832031 14.91363281 -15.81664062 14.82726562 -15.20703125 14.73828125 C-9.68171149 13.75580188 -6.47124916 12.69639592 -3 8 C-1.7896542 5.35880006 -0.89394429 2.77593228 0 0 Z " fill="#131111" transform="translate(171,104)"/>
<path d="M0 0 C0.474375 0.70125 0.94875 1.4025 1.4375 2.125 C6.25781619 7.53315963 11.22917583 11.14686852 18.5625 11.875 C20.04071315 11.94249832 21.52025949 11.99382154 23 12 C23 12.33 23 12.66 23 13 C20.69 13 18.38 13 16 13 C16 13.66 16 14.32 16 15 C9.9478915 14.68963546 5.58592776 11.72988791 1 8 C-2 4.48344371 -2 4.48344371 -2 2 C-1.34 2 -0.68 2 0 2 C0 1.34 0 0.68 0 0 Z " fill="#1E1D1C" transform="translate(138,115)"/>
<path d="M0 0 C0.33 0 0.66 0 1 0 C2.72330907 7.09326321 3.2494783 13.70968976 3 21 C2.34 21 1.68 21 1 21 C0.34 21.99 -0.32 22.98 -1 24 C-1.22580354 20.56341292 -1.42762697 17.12582782 -1.625 13.6875 C-1.68945312 12.71103516 -1.75390625 11.73457031 -1.8203125 10.72851562 C-1.871875 9.79072266 -1.9234375 8.85292969 -1.9765625 7.88671875 C-2.02893066 7.02264404 -2.08129883 6.15856934 -2.13525391 5.26831055 C-2 3 -2 3 0 0 Z " fill="#3A3837" transform="translate(184,46)"/>
<path d="M0 0 C1.75 0.125 1.75 0.125 4 1 C10.08554175 8.69642045 10.27521997 15.55078102 10 25 C9.67 25 9.34 25 9 25 C9 21.7 9 18.4 9 15 C8.34 15 7.68 15 7 15 C7 17.31 7 19.62 7 22 C6.67 22 6.34 22 6 22 C5.98582031 21.29875 5.97164062 20.5975 5.95703125 19.875 C5.64634357 13.69483425 4.7887132 9.64383182 1.05859375 4.65625 C0 3 0 3 0 0 Z " fill="#302E2E" transform="translate(157,39)"/>
<path d="M0 0 C0.33 0 0.66 0 1 0 C1 2.31 1 4.62 1 7 C1.99 7.33 2.98 7.66 4 8 C7 12.33333333 7 12.33333333 7 15 C12.94 15.99 12.94 15.99 19 17 C19 17.33 19 17.66 19 18 C16.69 18 14.38 18 12 18 C12 18.66 12 19.32 12 20 C7.6511541 19.49821009 5.10556122 16.90302462 2 14 C-0.00645261 10.8498694 -0.22235408 8.44945523 -0.125 4.75 C-0.09792969 3.41195312 -0.09792969 3.41195312 -0.0703125 2.046875 C-0.04710937 1.37140625 -0.02390625 0.6959375 0 0 Z " fill="#2C2B2A" transform="translate(142,101)"/>
<path d="M0 0 C0.33 0 0.66 0 1 0 C1 3.63 1 7.26 1 11 C0.04738281 11.13277344 -0.90523437 11.26554687 -1.88671875 11.40234375 C-3.14097656 11.57894531 -4.39523438 11.75554687 -5.6875 11.9375 C-6.92886719 12.11152344 -8.17023437 12.28554687 -9.44921875 12.46484375 C-12.32474548 12.89822897 -15.15644813 13.39649282 -18 14 C-18 12.68 -18 11.36 -18 10 C-13.50343896 7.75171948 -9.92127034 7.83317728 -5 8 C-5 8.33 -5 8.66 -5 9 C-3.35 9.33 -1.7 9.66 0 10 C0 6.7 0 3.4 0 0 Z " fill="#2A2828" transform="translate(43,60)"/>
<path d="M0 0 C8.70057407 -0.6727248 14.55361975 0.38719808 22 5 C21.01 5.99 20.02 6.98 19 8 C17.56096954 7.37853192 16.12383207 6.75267941 14.6875 6.125 C13.88699219 5.77695313 13.08648437 5.42890625 12.26171875 5.0703125 C10 4 10 4 7 2 C4.67612053 1.60612212 2.34206251 1.26513915 0 1 C0 0.67 0 0.34 0 0 Z " fill="#2B292A" transform="translate(60,82)"/>
<path d="M0 0 C2 3 2 3 3.25 5.875 C5.37390566 9.66768868 7.55662877 11.39834174 11 14 C10.67 14.99 10.34 15.98 10 17 C4.84563204 15.63560848 1.93351599 12.27426385 -1 8 C-1 7.34 -1 6.68 -1 6 C-0.34 6 0.32 6 1 6 C0.67 4.02 0.34 2.04 0 0 Z " fill="#2A2829" transform="translate(45,110)"/>
<path d="M0 0 C0.33 0 0.66 0 1 0 C1.06058594 0.72445312 1.12117187 1.44890625 1.18359375 2.1953125 C1.61483433 7.17116533 2.07047641 12.08680391 3 17 C2.01 17 1.02 17 0 17 C-0.433125 15.576875 -0.433125 15.576875 -0.875 14.125 C-1.76825109 10.94788422 -1.76825109 10.94788422 -4 9 C-2.68 6.03 -1.36 3.06 0 0 Z " fill="#0E0C0C" transform="translate(135,100)"/>
<path d="M0 0 C0.66 0 1.32 0 2 0 C2 1.32 2 2.64 2 4 C6.62 4 11.24 4 16 4 C16 4.33 16 4.66 16 5 C11.71 5 7.42 5 3 5 C3 5.66 3 6.32 3 7 C6.96 7 10.92 7 15 7 C15 7.33 15 7.66 15 8 C10.71 8 6.42 8 2 8 C1.67 8.66 1.34 9.32 1 10 C0 9 0 9 -0.09765625 6.93359375 C-0.08605469 6.10988281 -0.07445312 5.28617187 -0.0625 4.4375 C-0.05347656 3.61121094 -0.04445312 2.78492187 -0.03515625 1.93359375 C-0.02355469 1.29550781 -0.01195312 0.65742187 0 0 Z " fill="#414040" transform="translate(180,102)"/>
<path d="M0 0 C1.65322266 0.01740234 1.65322266 0.01740234 3.33984375 0.03515625 C4.99693359 0.04869141 4.99693359 0.04869141 6.6875 0.0625 C7.54214844 0.07410156 8.39679688 0.08570312 9.27734375 0.09765625 C9.60734375 0.75765625 9.93734375 1.41765625 10.27734375 2.09765625 C4.33734375 2.59265625 4.33734375 2.59265625 -1.72265625 3.09765625 C-2.05265625 9.03765625 -2.38265625 14.97765625 -2.72265625 21.09765625 C-3.05265625 21.09765625 -3.38265625 21.09765625 -3.72265625 21.09765625 C-3.75153771 17.78517438 -3.76941424 14.47272458 -3.78515625 11.16015625 C-3.79353516 10.21462891 -3.80191406 9.26910156 -3.81054688 8.29492188 C-3.81376953 7.39580078 -3.81699219 6.49667969 -3.8203125 5.5703125 C-3.82554932 4.73765869 -3.83078613 3.90500488 -3.83618164 3.04711914 C-3.6555465 -0.05475523 -3.13427484 0.11242019 0 0 Z " fill="#080505" transform="translate(121.72265625,26.90234375)"/>
<path d="M0 0 C4.60853797 0.72008406 8.67237409 2.31295939 13 4 C12.67 4.99 12.34 5.98 12 7 C7.15311808 6.21824485 2.6233633 4.60155722 -2 3 C-1.34 2.01 -0.68 1.02 0 0 Z " fill="#252322" transform="translate(146,12)"/>
<path d="M0 0 C0 0.66 0 1.32 0 2 C-5.93891422 4.5915262 -10.54107286 5.40368295 -17 5 C-17 4.34 -17 3.68 -17 3 C-16.11248047 2.81824219 -16.11248047 2.81824219 -15.20703125 2.6328125 C-11.70762347 1.89068687 -8.44001519 1.1817454 -5.125 -0.1875 C-3 -1 -3 -1 0 0 Z " fill="#141313" transform="translate(171,125)"/>
<path d="M0 0 C0.99 0 1.98 0 3 0 C5.59227518 4.86051596 5.18689553 9.65271133 5 15 C4.01 15.495 4.01 15.495 3 16 C2.49595192 13.89679937 1.99689492 11.79240209 1.5 9.6875 C1.08234375 7.92986328 1.08234375 7.92986328 0.65625 6.13671875 C0 3 0 3 0 0 Z " fill="#141312" transform="translate(208,79)"/>
<path d="M0 0 C0 0.33 0 0.66 0 1 C-0.95712891 1.07347656 -0.95712891 1.07347656 -1.93359375 1.1484375 C-2.75988281 1.22320312 -3.58617187 1.29796875 -4.4375 1.375 C-5.67306641 1.47941406 -5.67306641 1.47941406 -6.93359375 1.5859375 C-7.95646484 1.79089844 -7.95646484 1.79089844 -9 2 C-9.33 2.66 -9.66 3.32 -10 4 C-11.84765625 4.8515625 -11.84765625 4.8515625 -14.0625 5.625 C-14.79597656 5.88539062 -15.52945313 6.14578125 -16.28515625 6.4140625 C-16.85105469 6.60742188 -17.41695312 6.80078125 -18 7 C-18 6.34 -18 5.68 -18 5 C-18.66 4.67 -19.32 4.34 -20 4 C-13.20780865 -0.17981006 -7.88602342 -0.4731614 0 0 Z " fill="#2F2D2E" transform="translate(163,82)"/>
<path d="M0 0 C3.35498935 1.38827146 5.15050455 2.85585774 7 6 C7 7.32 7 8.64 7 10 C6.34 10 5.68 10 5 10 C4.67 11.32 4.34 12.64 4 14 C3.731875 12.741875 3.46375 11.48375 3.1875 10.1875 C2.40467463 7.00551199 1.74664072 4.99755689 -1 3 C-0.67 2.01 -0.34 1.02 0 0 Z " fill="#222021" transform="translate(166,94)"/>
<path d="M0 0 C0.57234375 0.37898438 1.1446875 0.75796875 1.734375 1.1484375 C0.27988099 2.1540136 -1.17934943 3.15274185 -2.640625 4.1484375 C-3.85878906 4.98375 -3.85878906 4.98375 -5.1015625 5.8359375 C-7.265625 7.1484375 -7.265625 7.1484375 -9.265625 7.1484375 C-9.595625 6.1584375 -9.925625 5.1684375 -10.265625 4.1484375 C-9.0293082 3.25420836 -7.77590938 2.38355859 -6.515625 1.5234375 C-5.81953125 1.03617187 -5.1234375 0.54890625 -4.40625 0.046875 C-2.265625 -0.8515625 -2.265625 -0.8515625 0 0 Z " fill="#212020" transform="translate(83.265625,121.8515625)"/>
<path d="M0 0 C0.33 0 0.66 0 1 0 C0.67 4.95 0.34 9.9 0 15 C-2.31 15 -4.62 15 -7 15 C-6.34 14.34 -5.68 13.68 -5 13 C-4.01 13 -3.02 13 -2 13 C-2.02320313 12.39671875 -2.04640625 11.7934375 -2.0703125 11.171875 C-2.08835937 10.37265625 -2.10640625 9.5734375 -2.125 8.75 C-2.14820313 7.96109375 -2.17140625 7.1721875 -2.1953125 6.359375 C-1.9828378 3.79268059 -1.28654105 2.2083933 0 0 Z " fill="#090606" transform="translate(43,55)"/>
<path d="M0 0 C0 0.99 0 1.98 0 3 C-3.3 3.33 -6.6 3.66 -10 4 C-10 2.68 -10 1.36 -10 0 C-2.25 -1.125 -2.25 -1.125 0 0 Z " fill="#333231" transform="translate(73,118)"/>
<path d="M0 0 C0.33 0.66 0.66 1.32 1 2 C1.66 2.33 2.32 2.66 3 3 C2.34 6.96 1.68 10.92 1 15 C0.01 14.34 -0.98 13.68 -2 13 C-2.40564287 8.05115699 -2.25552839 4.51105678 0 0 Z " fill="#252422" transform="translate(62,46)"/>
<path d="M0 0 C0 0.66 0 1.32 0 2 C0.66 2.33 1.32 2.66 2 3 C0.23413239 3.5576424 -1.53795256 4.09562787 -3.3125 4.625 C-4.29863281 4.92664063 -5.28476563 5.22828125 -6.30078125 5.5390625 C-9 6 -9 6 -12 4 C-10.3767313 3.3291288 -8.75132422 2.66342971 -7.125 2 C-6.22007813 1.62875 -5.31515625 1.2575 -4.3828125 0.875 C-2 0 -2 0 0 0 Z " fill="#232322" transform="translate(86,11)"/>
<path d="M0 0 C0.5775 0.7425 1.155 1.485 1.75 2.25 C3.72253526 4.66087643 5.76044282 6.84042701 8 9 C6.35 9.33 4.7 9.66 3 10 C-2 4.25 -2 4.25 -2 2 C-1.34 2 -0.68 2 0 2 C0 1.34 0 0.68 0 0 Z " fill="#272626" transform="translate(138,115)"/>
<path d="M0 0 C-7.28571429 3.42857143 -7.28571429 3.42857143 -12 3 C-12.33 2.01 -12.66 1.02 -13 0 C-11.58800422 -0.39222105 -10.17007236 -0.76311059 -8.75 -1.125 C-7.96109375 -1.33382812 -7.1721875 -1.54265625 -6.359375 -1.7578125 C-3.5796929 -2.04314411 -2.34112451 -1.44977894 0 0 Z " fill="#1B1A1A" transform="translate(167,119)"/>
<path d="M0 0 C2.97 0.33 5.94 0.66 9 1 C8.01 1.495 8.01 1.495 7 2 C7 2.66 7 3.32 7 4 C1.06 3.67 -4.88 3.34 -11 3 C-11 2.67 -11 2.34 -11 2 C-5.555 1.505 -5.555 1.505 0 1 C0 0.67 0 0.34 0 0 Z " fill="#32302F" transform="translate(131,27)"/>
<path d="M0 0 C9.41002278 -0.3690205 9.41002278 -0.3690205 14 2 C13.67 2.66 13.34 3.32 13 4 C11.58249437 3.88490339 10.16598831 3.75746342 8.75 3.625 C7.96109375 3.55539062 7.1721875 3.48578125 6.359375 3.4140625 C3.914123 2.98492887 2.15163097 2.21399362 0 1 C0 0.67 0 0.34 0 0 Z " fill="#131312" transform="translate(132,10)"/>
<path d="M0 0 C0.91007812 0.10183594 1.82015625 0.20367187 2.7578125 0.30859375 C3.45648438 0.39238281 4.15515625 0.47617188 4.875 0.5625 C4.875 1.2225 4.875 1.8825 4.875 2.5625 C3.95267578 2.65337891 3.95267578 2.65337891 3.01171875 2.74609375 C2.20347656 2.82988281 1.39523438 2.91367188 0.5625 3 C-0.23800781 3.08121094 -1.03851563 3.16242188 -1.86328125 3.24609375 C-4.28587179 3.51515693 -4.28587179 3.51515693 -7.125 4.5625 C-7.125 3.2425 -7.125 1.9225 -7.125 0.5625 C-4.50184968 -0.74907516 -2.89466564 -0.33399988 0 0 Z " fill="#151314" transform="translate(66.125,91.4375)"/>
<path d="M0 0 C5.28 0.33 10.56 0.66 16 1 C13 4 13 4 10.73828125 4.29296875 C9.93777344 4.25816406 9.13726562 4.22335938 8.3125 4.1875 C7.50425781 4.16042969 6.69601563 4.13335938 5.86328125 4.10546875 C5.24839844 4.07066406 4.63351563 4.03585938 4 4 C4.33 3.34 4.66 2.68 5 2 C3.35 1.67 1.7 1.34 0 1 C0 0.67 0 0.34 0 0 Z " fill="#2D2C2C" transform="translate(120,8)"/>
<path d="M0 0 C-0.33 0.66 -0.66 1.32 -1 2 C-5.95 2 -10.9 2 -16 2 C-16 1.34 -16 0.68 -16 0 C-13.89651926 -0.19504458 -11.79217415 -0.38078496 -9.6875 -0.5625 C-8.51574219 -0.66691406 -7.34398437 -0.77132812 -6.13671875 -0.87890625 C-3 -1 -3 -1 0 0 Z " fill="#090809" transform="translate(199,107)"/>
<path d="M0 0 C4.4571874 0.26218749 6.51522698 0.57711289 9.9375 3.5625 C10.618125 4.366875 11.29875 5.17125 12 6 C11.01 6.66 10.02 7.32 9 8 C6.5 6.1875 6.5 6.1875 4 4 C4 3.01 4 2.02 4 1 C2.68 0.67 1.36 0.34 0 0 Z " fill="#232122" transform="translate(67,91)"/>
<path d="M0 0 C-0.41153737 4.97093824 -0.79600832 9.44508386 -3 14 C-3.33 14 -3.66 14 -4 14 C-4.02708567 12.39592672 -4.04643483 10.7917215 -4.0625 9.1875 C-4.07410156 8.29417969 -4.08570313 7.40085937 -4.09765625 6.48046875 C-4 4 -4 4 -3 1 C-1 0 -1 0 0 0 Z " fill="#2A2828" transform="translate(14,83)"/>
<path d="M0 0 C1.91360971 0.21648378 3.83083621 0.40256968 5.75 0.5625 C6.73484375 0.64628906 7.7196875 0.73007812 8.734375 0.81640625 C9.48203125 0.87699219 10.2296875 0.93757813 11 1 C11 1.33 11 1.66 11 2 C2.585 2.495 2.585 2.495 -6 3 C-6 2.34 -6 1.68 -6 1 C-6.99 0.67 -7.98 0.34 -9 0 C-5.49983915 -0.87504021 -3.43890259 -0.88428924 0 0 Z " fill="#373634" transform="translate(94,28)"/>
<path d="M0 0 C0.66 0 1.32 0 2 0 C1.5206753 4.31392226 0.2542015 6.16569547 -3 9 C-3 8.34 -3 7.68 -3 7 C-3.66 6.67 -4.32 6.34 -5 6 C-3.38405168 3.95880212 -1.7143618 1.95927063 0 0 Z " fill="#242223" transform="translate(57,93)"/>
<path d="M0 0 C0.33 0.66 0.66 1.32 1 2 C2.89533342 2.46523063 2.89533342 2.46523063 5.0625 2.625 C6.361875 2.74875 7.66125 2.8725 9 3 C9 3.66 9 4.32 9 5 C5.7 5 2.4 5 -1 5 C-0.67 3.35 -0.34 1.7 0 0 Z " fill="#0A0809" transform="translate(185,65)"/>
<path d="M0 0 C2.31 0.66 4.62 1.32 7 2 C6.01 3.485 6.01 3.485 5 5 C0.545 4.01 0.545 4.01 -4 3 C-2.68 2.67 -1.36 2.34 0 2 C0 1.34 0 0.68 0 0 Z " fill="#2E2C2D" transform="translate(194,68)"/>
<path d="M0 0 C2 4 2 4 3 7 C2.0625 9.1875 2.0625 9.1875 1 11 C0.01 11 -0.98 11 -2 11 C-1.34 7.37 -0.68 3.74 0 0 Z " fill="#262324" transform="translate(88,104)"/>
<path d="M0 0 C0.33 0 0.66 0 1 0 C1 2.31 1 4.62 1 7 C1.99 7.33 2.98 7.66 4 8 C4.6875 10.0625 4.6875 10.0625 5 12 C3.68 12 2.36 12 1 12 C-0.26237731 9.47524538 -0.09856404 7.68799534 -0.0625 4.875 C-0.05347656 3.96492188 -0.04445312 3.05484375 -0.03515625 2.1171875 C-0.02355469 1.41851562 -0.01195312 0.71984375 0 0 Z " fill="#383535" transform="translate(142,101)"/>
<path d="M0 0 C0.66 0 1.32 0 2 0 C3.26026798 2.52053595 2.91874445 3.8542098 2.5625 6.625 C2.40974609 7.85089844 2.40974609 7.85089844 2.25390625 9.1015625 C2.17011719 9.72804688 2.08632812 10.35453125 2 11 C1.67 11 1.34 11 1 11 C0.63890458 9.35567294 0.28629924 7.7094792 -0.0625 6.0625 C-0.25972656 5.14597656 -0.45695312 4.22945313 -0.66015625 3.28515625 C-0.77230469 2.53105469 -0.88445312 1.77695313 -1 1 C-0.67 0.67 -0.34 0.34 0 0 Z " fill="#141213" transform="translate(78,97)"/>
<path d="M0 0 C0.99 0 1.98 0 3 0 C3 0.99 3 1.98 3 3 C0.5 5.1875 0.5 5.1875 -2 7 C-2.66 6.67 -3.32 6.34 -4 6 C-2.84826645 3.53199953 -1.95216435 1.95216435 0 0 Z " fill="#121011" transform="translate(142,87)"/>
<path d="M0 0 C2.97 0 5.94 0 9 0 C9.33 0.66 9.66 1.32 10 2 C6.7 2.33 3.4 2.66 0 3 C0 2.01 0 1.02 0 0 Z " fill="#0E0C0D" transform="translate(58,83)"/>
<path d="M0 0 C-1.36983503 3.16115776 -1.9890638 3.9927092 -5 6 C-5.99 5.67 -6.98 5.34 -8 5 C-3.375 0 -3.375 0 0 0 Z " fill="#131212" transform="translate(79,114)"/>
<path d="M0 0 C0 3.99904969 -1.72586967 5.80200422 -4 9 C-4.66 8.67 -5.32 8.34 -6 8 C-5.65120368 4.74456771 -4.97866739 3.98126893 -2.4375 1.75 C-1.633125 1.1725 -0.82875 0.595 0 0 Z " fill="#12100F" transform="translate(55,30)"/>
<path d="M0 0 C0.33 0 0.66 0 1 0 C1.144375 0.763125 1.28875 1.52625 1.4375 2.3125 C1.9632594 5.08172908 1.9632594 5.08172908 3 8 C1 10 1 10 -2 11 C-1.34 7.37 -0.68 3.74 0 0 Z " fill="#2F2D2D" transform="translate(210,89)"/>
<path d="M0 0 C2.6875 0.875 2.6875 0.875 5 2 C2.33440687 3.77706209 -0.0280615 4.87548273 -3 6 C-3 4.68 -3 3.36 -3 2 C-2.01 1.34 -1.02 0.68 0 0 Z " fill="#292828" transform="translate(55,84)"/>
<path d="M0 0 C0.33 0.66 0.66 1.32 1 2 C-1.64738916 3.4606285 -2.89448334 4 -6 4 C-6 2.68 -6 1.36 -6 0 C-2.25 -1.125 -2.25 -1.125 0 0 Z " fill="#2C2A2B" transform="translate(204,105)"/>
<path d="M0 0 C0.33 0.99 0.66 1.98 1 3 C-0.9375 5.6875 -0.9375 5.6875 -3 8 C-3.66 7.67 -4.32 7.34 -5 7 C-3.75023244 3.34683329 -3.32901247 2.21934164 0 0 Z " fill="#191716" transform="translate(17,77)"/>
<path d="M0 0 C0.66 0.33 1.32 0.66 2 1 C-1.02356197 5.12303905 -3.1546946 7.21488748 -8 9 C-7.04270084 7.87411986 -6.08412105 6.7493285 -5.125 5.625 C-4.59132812 4.99851562 -4.05765625 4.37203125 -3.5078125 3.7265625 C-2.38567993 2.44163349 -1.20628025 1.20628025 0 0 Z " fill="#201E1D" transform="translate(59,24)"/>
<path d="M0 0 C2 1 2 1 3 3 C-1.43076923 5.09230769 -1.43076923 5.09230769 -4.3125 4.625 C-4.869375 4.41875 -5.42625 4.2125 -6 4 C-4.02 2.68 -2.04 1.36 0 0 Z " fill="#201F1F" transform="translate(68,18)"/>
<path d="M0 0 C1.10844919 3.32534757 0.84454356 5.62182575 0 9 C-0.66 9 -1.32 9 -2 9 C-2.125 5.625 -2.125 5.625 -2 2 C-1.34 1.34 -0.68 0.68 0 0 Z " fill="#0C0A09" transform="translate(145,99)"/>
<path d="M0 0 C0.66 0 1.32 0 2 0 C1.67 2.97 1.34 5.94 1 9 C-1 7 -1 7 -1.1875 3.9375 C-1 1 -1 1 0 0 Z " fill="#110F10" transform="translate(52,100)"/>
<path d="M0 0 C1.7074998 1.28062485 3.37373596 2.61767557 5 4 C5 4.66 5 5.32 5 6 C3.125 5.6875 3.125 5.6875 1 5 C0.34 4.01 -0.32 3.02 -1 2 C-0.67 1.34 -0.34 0.68 0 0 Z " fill="#0E0C0D" transform="translate(169,23)"/>
<path d="M0 0 C1.9375 0.3125 1.9375 0.3125 4 1 C4.33 1.99 4.66 2.98 5 4 C3.35 3.67 1.7 3.34 0 3 C0 2.01 0 1.02 0 0 Z " fill="#191718" transform="translate(200,71)"/>
<path d="M0 0 C0.99 0 1.98 0 3 0 C3.33 1.32 3.66 2.64 4 4 C3.01 4.66 2.02 5.32 1 6 C0.67 4.02 0.34 2.04 0 0 Z " fill="#212020" transform="translate(179,38)"/>
<path d="M0 0 C2.625 -0.1875 2.625 -0.1875 5 0 C4.67 0.99 4.34 1.98 4 3 C2.02 3 0.04 3 -2 3 C-1.34 2.01 -0.68 1.02 0 0 Z " fill="#11100E" transform="translate(83,29)"/>
</svg>
