<?xml version="1.0" standalone="no"?>
<!DOCTYPE svg PUBLIC "-//W3C//DTD SVG 20010904//EN"
 "http://www.w3.org/TR/2001/REC-SVG-20010904/DTD/svg10.dtd">
<svg version="1.0" xmlns="http://www.w3.org/2000/svg"
 width="2783.000000pt" height="3000.000000pt" viewBox="0 0 2783.000000 3000.000000"
 preserveAspectRatio="xMidYMid meet">

<g transform="translate(0.000000,3000.000000) scale(0.100000,-0.100000)"
fill="#000000" stroke="none">
<path d="M16110 29213 c-519 -27 -914 -70 -1392 -148 -258 -43 -666 -126 -818
-166 -63 -17 -158 -42 -210 -55 -531 -138 -1027 -316 -1603 -575 -323 -146
-624 -304 -972 -512 -389 -233 -871 -574 -1175 -831 -52 -45 -149 -126 -215
-181 -157 -130 -843 -816 -970 -970 -55 -66 -130 -156 -168 -200 -256 -296
-641 -837 -914 -1285 -383 -627 -686 -1271 -910 -1935 -124 -370 -204 -680
-248 -968 -14 -89 -30 -176 -35 -193 -6 -17 -48 -80 -95 -139 -187 -242 -294
-527 -351 -940 -21 -152 -24 -608 -5 -734 45 -296 163 -597 341 -864 99 -149
93 -132 130 -367 64 -395 197 -860 392 -1370 313 -817 816 -1752 1352 -2515
124 -177 416 -566 520 -694 95 -117 152 -183 406 -476 151 -174 656 -681 863
-867 98 -88 176 -162 174 -164 -2 -2 -22 2 -44 10 -22 8 -78 22 -124 31 -46 9
-241 50 -434 91 -486 104 -944 198 -2080 428 -489 99 -971 201 -1026 218 -43
12 -47 26 -30 102 7 30 5 54 -11 105 -43 143 -128 241 -308 359 -63 41 -119
78 -123 82 -4 4 26 56 68 115 86 123 168 280 211 404 29 83 29 84 120 156 95
76 224 209 298 310 86 115 156 285 156 380 0 44 -30 102 -68 130 -61 45 -209
27 -342 -40 l-48 -24 -6 62 c-13 120 -67 363 -107 481 -45 137 -138 327 -213
438 -102 153 -335 382 -491 483 -152 100 -323 176 -504 224 -242 66 -404 86
-634 78 -279 -9 -507 -67 -772 -197 -416 -204 -728 -509 -924 -905 -75 -153
-124 -291 -171 -485 -25 -104 -31 -160 -40 -335 -5 -115 -10 -249 -10 -297 0
-77 -2 -88 -17 -88 -10 0 -105 11 -212 25 -198 26 -371 32 -414 16 -14 -5 -41
-24 -61 -42 -111 -97 -100 -240 25 -353 62 -56 266 -160 390 -199 107 -34 315
-79 348 -75 20 3 30 -7 65 -66 71 -118 198 -277 273 -340 39 -34 72 -64 72
-67 1 -4 -35 -25 -78 -48 -102 -53 -182 -125 -209 -189 -13 -29 -24 -83 -28
-133 -4 -63 -14 -104 -41 -166 -279 -666 -214 -1405 175 -1986 273 -406 657
-691 1132 -839 533 -166 1164 -91 1641 194 53 32 102 58 109 58 7 0 112 -45
234 -99 218 -98 1012 -439 1236 -531 63 -26 403 -167 755 -314 847 -353 841
-351 907 -372 l57 -17 -32 -22 c-17 -12 -84 -47 -147 -79 -436 -219 -769 -559
-1076 -1096 -376 -660 -619 -1617 -654 -2573 -4 -137 -10 -250 -12 -252 -2 -2
-34 0 -71 5 -38 6 -105 11 -150 11 -45 1 -103 3 -128 6 l-46 4 -6 197 c-9 324
-52 511 -170 745 -229 453 -606 792 -1033 930 -226 73 -287 82 -594 82 -248 0
-286 -2 -390 -23 -260 -53 -439 -108 -605 -186 -410 -195 -663 -462 -801 -844
-19 -53 -38 -100 -42 -104 -8 -8 -370 17 -379 25 -3 3 -1 82 4 174 12 196 3
348 -32 583 -13 91 -29 246 -35 345 -12 187 -16 231 -50 480 -18 134 -48 282
-65 326 -5 13 6 20 47 34 114 37 145 75 135 169 -3 34 0 68 8 92 8 22 14 65
15 96 0 37 5 60 14 65 49 29 46 98 -10 269 l-46 139 3 145 3 145 -42 110 c-24
61 -52 157 -63 215 -44 218 -126 328 -434 576 -47 38 -89 64 -103 64 -36 0
-74 -94 -132 -325 -44 -177 -77 -280 -166 -525 -32 -89 -32 -159 1 -198 23
-27 25 -39 25 -123 1 -52 5 -114 10 -139 5 -25 14 -157 20 -295 6 -137 15
-264 21 -282 6 -20 32 -50 70 -80 42 -35 59 -55 59 -72 0 -30 44 -107 70 -121
10 -5 37 -10 59 -10 37 0 40 -2 46 -32 17 -101 47 -332 60 -463 15 -150 20
-189 49 -340 25 -135 45 -302 56 -470 12 -201 13 -566 1 -598 -8 -20 -24 -28
-92 -47 -449 -121 -764 -312 -1059 -645 -417 -469 -614 -1236 -499 -1950 10
-59 77 -323 94 -367 5 -11 -11 -9 -65 9 -135 45 -256 30 -355 -45 -61 -46 -99
-107 -121 -191 -27 -109 5 -221 91 -306 59 -60 105 -81 264 -121 137 -35 201
-53 201 -58 0 -1 -12 -36 -26 -77 -22 -62 -25 -86 -22 -154 5 -89 18 -122 72
-177 106 -109 466 -214 748 -219 54 -1 98 -4 98 -8 -1 -3 -7 -33 -15 -66 -8
-33 -15 -81 -15 -107 0 -60 33 -150 73 -195 60 -68 188 -143 350 -203 78 -29
87 -35 81 -54 -3 -12 -37 -85 -75 -164 -72 -147 -83 -182 -62 -189 12 -4 144
248 171 325 13 37 10 37 99 16 109 -25 270 -44 382 -44 l104 0 -4 -143 c-4
-137 -3 -142 16 -142 19 0 20 8 23 147 2 140 4 148 24 159 51 27 89 100 119
227 17 72 18 94 9 126 -11 36 -10 40 18 70 68 72 76 125 36 241 -14 42 -23 79
-20 83 4 3 68 -9 142 -27 103 -25 150 -32 197 -29 115 8 226 85 280 195 21 43
38 53 93 53 57 0 268 40 345 66 230 75 338 250 285 464 -7 30 -17 63 -21 73
-7 16 2 17 106 17 160 0 257 25 423 106 l57 27 46 -19 c25 -10 48 -24 50 -30
2 -6 -32 -51 -75 -100 -161 -184 -234 -299 -257 -409 -42 -204 88 -325 297
-276 43 10 231 114 301 167 l47 36 21 -51 c12 -28 26 -51 30 -51 5 0 9 -4 9
-8 0 -4 -15 -6 -33 -4 -48 6 -203 -25 -262 -52 -27 -13 -76 -49 -107 -81 -64
-65 -91 -122 -109 -233 -10 -63 -9 -75 15 -153 31 -102 75 -163 171 -236 202
-154 530 -248 975 -279 105 -7 308 9 398 32 85 21 194 80 260 139 l59 54 52
-54 c90 -91 261 -168 446 -199 187 -32 337 -41 493 -28 506 42 875 227 972
487 14 39 24 92 27 150 5 84 3 94 -23 150 -48 100 -146 175 -234 179 -22 0
-40 4 -40 8 0 3 34 75 75 159 41 84 82 175 91 203 51 156 89 195 172 177 84
-18 167 -58 165 -78 -1 -10 -7 -74 -12 -143 -6 -69 -17 -190 -25 -270 -8 -80
-20 -203 -26 -275 -11 -126 -16 -169 -45 -362 -16 -106 -7 -165 36 -227 33
-49 56 -56 177 -56 153 0 178 6 210 48 24 32 27 43 26 111 -7 359 -4 508 15
681 11 102 23 238 27 303 4 64 12 125 19 133 10 15 24 16 126 6 283 -28 506
-24 758 14 367 54 710 195 945 387 77 63 80 65 152 72 86 8 1143 -22 1399 -40
22 -2 130 -6 240 -9 183 -6 610 -27 830 -41 50 -3 127 -5 171 -5 84 2 200 -16
210 -31 3 -5 21 -64 40 -132 105 -371 277 -713 510 -1012 78 -100 293 -311
402 -393 281 -213 565 -347 933 -441 260 -67 496 -91 881 -91 552 0 866 62
1278 253 167 77 373 224 523 372 67 67 127 117 143 121 15 4 113 3 218 -2 620
-29 1483 16 2016 106 641 108 1114 255 1590 495 328 166 585 339 850 573 155
136 235 219 382 393 306 363 556 793 718 1239 23 63 49 133 58 155 9 22 16 41
16 42 1 1 39 6 86 13 47 6 139 20 205 30 66 10 174 24 240 30 66 6 143 13 171
16 l50 6 18 -82 c79 -370 320 -623 696 -733 106 -31 356 -30 475 1 286 77 541
303 645 574 92 237 77 545 -38 777 -84 172 -254 338 -435 426 -139 66 -187 77
-387 82 -162 4 -182 3 -271 -20 -261 -68 -488 -252 -609 -495 -26 -53 -55
-144 -90 -279 l-11 -43 -50 0 c-59 0 -476 -55 -567 -74 -58 -13 -63 -12 -56 3
18 45 97 376 138 581 67 334 120 778 138 1145 24 511 10 1441 -26 1707 -7 45
-27 288 -28 323 0 18 -13 127 -54 465 -71 593 -228 1431 -384 2060 -39 153
-70 285 -70 292 0 7 18 23 40 36 93 53 155 128 191 233 19 54 22 84 22 194 -1
120 -3 136 -33 215 -17 47 -35 89 -40 94 -6 6 16 26 55 53 135 90 501 461 701
708 177 220 251 317 380 502 332 473 578 891 856 1453 541 1091 904 2264 1082
3495 14 94 30 224 36 290 6 66 13 127 15 135 6 21 43 430 47 515 9 203 2 1069
-10 1175 -108 956 -230 1536 -487 2305 -378 1136 -924 2168 -1644 3109 -309
404 -684 824 -1026 1150 -1405 1337 -3109 2216 -5100 2632 -341 71 -959 164
-1290 194 -66 6 -190 17 -275 25 -283 26 -593 35 -1142 33 -299 -1 -568 -3
-598 -5z m175 -209 c13 -5 3 -13 -36 -29 -128 -52 -358 -211 -508 -351 -342
-320 -651 -808 -841 -1331 -35 -97 -36 -95 -74 102 -40 203 -88 349 -166 505
-186 370 -477 613 -842 705 -96 24 -98 26 -48 41 71 22 313 83 414 104 348 72
457 92 661 125 396 62 754 99 1220 124 83 4 162 9 177 10 14 0 34 -2 43 -5z
m934 -64 c459 -32 866 -218 1124 -515 213 -245 359 -562 436 -940 29 -146 43
-257 44 -367 1 -54 6 -98 11 -98 5 0 6 -62 1 -152 -4 -84 -7 -162 -7 -173 1
-59 -33 -353 -59 -505 -145 -852 -500 -1545 -973 -1899 -135 -101 -195 -137
-341 -207 -313 -149 -593 -202 -1010 -191 -390 10 -600 59 -825 193 -192 113
-405 316 -538 511 -47 70 -147 253 -137 253 3 0 21 -11 39 -25 75 -57 199 -95
310 -95 98 0 163 16 266 67 82 41 109 61 195 147 111 112 166 198 221 345 48
128 65 226 64 371 0 144 -27 275 -80 384 -38 80 -155 207 -234 255 -81 49
-190 73 -296 67 -256 -15 -441 -159 -634 -491 l-47 -80 6 65 c24 285 110 664
237 1050 178 543 378 940 648 1289 82 105 267 294 369 376 267 212 584 342
896 365 144 10 165 10 314 0z m981 0 c604 -52 1499 -232 2165 -435 66 -21 142
-44 169 -52 183 -55 737 -264 911 -343 22 -10 81 -36 130 -58 528 -232 1180
-600 1625 -917 424 -302 631 -470 1041 -841 252 -229 312 -289 464 -459 50
-55 111 -122 136 -150 397 -430 776 -934 1121 -1490 838 -1351 1375 -2952
1496 -4460 34 -426 17 -1289 -32 -1645 -8 -58 -22 -168 -31 -245 -23 -201 -59
-420 -121 -740 -172 -890 -449 -1739 -847 -2605 -372 -807 -862 -1596 -1375
-2215 -136 -163 -510 -543 -608 -617 -33 -26 -87 -62 -119 -82 -55 -33 -59
-34 -71 -17 -12 17 -57 18 -766 27 -414 4 -851 8 -971 9 -119 0 -217 2 -217 5
0 3 37 48 83 100 217 248 441 551 632 855 98 155 115 185 251 427 519 927 929
2126 1138 3331 65 369 138 910 151 1107 2 41 13 180 25 309 11 131 20 317 20
421 0 123 4 190 11 197 7 7 9 27 5 55 -4 23 -11 153 -15 288 -8 231 -24 454
-37 510 -3 14 -7 54 -9 90 -2 36 -15 139 -30 230 -149 947 -422 1719 -888
2515 -173 295 -448 687 -647 918 -41 49 -90 107 -108 130 -79 99 -335 372
-452 482 -41 38 -120 113 -175 166 -188 180 -553 478 -728 594 -39 26 -54 41
-45 46 7 4 65 21 128 38 162 45 272 80 287 93 8 6 13 32 13 64 0 41 -5 59 -23
80 -40 46 -86 39 -539 -85 l-108 -30 -102 68 c-352 232 -815 483 -1193 648
-333 145 -659 254 -989 332 -49 11 -91 22 -92 24 -2 2 7 44 21 93 28 101 90
401 100 484 3 30 15 116 25 190 112 799 -43 1583 -409 2067 -136 179 -393 401
-544 468 -32 13 -57 27 -57 30 0 8 73 6 200 -5z m-4503 -524 c272 -58 459
-175 635 -397 166 -209 288 -542 318 -869 15 -163 8 -473 -15 -610 -73 -444
-207 -940 -319 -1176 -25 -52 -68 -130 -97 -173 l-51 -78 -181 5 c-200 5 -305
-5 -451 -43 -353 -92 -672 -350 -860 -697 -20 -37 -46 -73 -57 -79 -32 -17
-263 -23 -362 -10 -115 16 -241 52 -341 101 -463 222 -711 691 -717 1350 -2
262 62 612 164 890 138 378 331 689 624 1005 178 193 331 324 538 462 266 177
485 269 750 317 107 19 335 20 422 2z m-1677 -443 c-138 -113 -352 -357 -505
-578 -225 -325 -385 -699 -464 -1086 -34 -163 -61 -415 -61 -561 l0 -137 -55
-20 c-31 -12 -58 -21 -62 -21 -3 0 -120 -45 -259 -101 -428 -170 -904 -418
-1249 -648 -217 -146 -217 -146 -325 -228 -104 -79 -129 -100 -347 -283 -436
-368 -912 -923 -1247 -1458 -153 -244 -354 -620 -455 -852 -13 -30 -41 -93
-61 -140 -20 -47 -70 -177 -109 -290 -40 -113 -76 -209 -82 -214 -51 -52 104
590 228 938 235 664 502 1233 858 1831 126 211 341 542 435 670 37 50 125 169
197 266 604 815 1425 1607 2278 2196 289 200 628 407 917 559 101 53 188 100
194 105 14 12 196 88 209 89 6 0 -10 -17 -35 -37z m3318 -2207 c21 -11 41 -36
63 -81 28 -58 31 -71 26 -127 -8 -89 -57 -181 -121 -225 -41 -28 -57 -33 -107
-33 -54 0 -62 3 -100 37 -60 55 -73 85 -71 176 1 55 8 93 22 125 24 54 82 118
125 138 37 18 120 12 163 -10z m3600 -391 c183 -40 410 -109 647 -199 325
-123 793 -355 1160 -574 88 -53 173 -103 189 -113 l29 -17 -39 -20 c-21 -11
-133 -50 -247 -87 -944 -303 -2121 -766 -3285 -1291 -447 -202 -651 -298
-1117 -524 -223 -108 -268 -149 -232 -213 58 -105 92 -99 444 76 401 201 1289
607 1643 752 58 24 132 56 165 70 126 58 702 294 900 370 61 23 200 77 310
120 110 42 236 90 280 105 44 16 122 44 173 64 114 43 734 254 977 332 225 71
270 77 328 39 179 -119 523 -393 755 -604 101 -91 209 -188 240 -216 31 -27
81 -77 111 -110 30 -33 104 -114 166 -180 209 -225 254 -278 494 -590 253
-329 499 -731 706 -1159 152 -311 268 -616 390 -1016 67 -218 160 -650 194
-900 43 -313 74 -634 69 -720 -1 -19 2 -107 6 -195 10 -200 -7 -687 -33 -952
-11 -109 -25 -252 -31 -318 -47 -508 -178 -1248 -320 -1800 -182 -712 -394
-1309 -679 -1914 -93 -198 -284 -561 -361 -686 -216 -350 -310 -493 -450 -680
-126 -169 -345 -431 -449 -537 l-76 -78 -446 0 c-264 0 -458 4 -475 10 -18 6
-337 11 -814 12 l-785 3 -75 43 c-133 76 -542 379 -589 436 -12 15 -8 35 32
154 46 137 97 350 97 408 0 16 6 38 13 47 6 9 64 41 127 70 473 218 890 465
1225 726 61 47 128 99 150 116 137 102 532 484 750 725 325 359 690 903 941
1401 280 558 503 1207 634 1852 61 297 119 766 104 842 -4 24 -2 35 6 35 9 0
10 69 6 283 -6 361 -5 334 -22 462 -29 222 -105 467 -170 552 -33 43 -68 48
-238 34 -192 -15 -708 -94 -1156 -176 -102 -19 -266 -48 -366 -64 -99 -17
-225 -40 -278 -51 -130 -27 -178 -25 -321 9 -66 16 -232 56 -370 89 -394 95
-856 196 -1310 287 -440 88 -1395 250 -1740 295 -368 48 -534 69 -605 75 -73
7 -76 6 -103 -21 -47 -47 -51 -123 -7 -155 25 -19 53 -23 755 -119 232 -32
310 -44 705 -110 650 -109 1426 -263 1985 -395 77 -18 182 -41 234 -50 54 -10
88 -21 80 -25 -21 -11 -271 -64 -619 -129 -677 -128 -1076 -204 -1320 -252
-140 -28 -316 -61 -390 -75 -169 -31 -665 -127 -825 -159 -66 -13 -181 -35
-255 -49 -74 -14 -243 -46 -375 -71 -132 -25 -429 -82 -660 -125 -231 -43
-517 -97 -635 -120 -118 -23 -325 -61 -460 -86 -135 -25 -292 -54 -350 -64
-155 -29 -157 -29 -164 23 -3 23 -11 213 -17 422 -10 298 -15 382 -26 388 -15
9 -18 57 -3 57 6 0 8 15 5 38 -3 20 -10 201 -16 402 -6 201 -13 397 -16 435
-10 175 -15 1243 -8 1748 l7 557 57 0 c307 0 574 86 821 263 162 117 242 199
350 361 97 146 160 298 201 486 19 89 23 133 22 290 -1 156 -4 195 -21 248
-11 34 -16 62 -12 62 5 0 66 -38 136 -86 143 -96 264 -156 404 -202 172 -57
295 -77 556 -92 344 -20 642 12 909 99 258 83 557 246 725 396 371 331 600
674 784 1178 10 26 24 47 32 47 8 0 67 -11 132 -25z m-7922 -22 c11 -67 64
-276 86 -338 33 -97 103 -239 163 -332 39 -59 102 -133 194 -224 152 -152 254
-221 431 -290 185 -73 273 -90 480 -93 104 -2 184 -7 184 -12 -19 -124 -28
-248 -27 -364 0 -126 5 -161 31 -271 67 -274 172 -463 368 -665 187 -192 412
-320 657 -375 56 -12 58 -14 52 -38 -12 -51 -17 -1810 -5 -2201 6 -212 11
-394 11 -405 0 -21 11 -286 29 -725 6 -140 16 -327 21 -415 6 -88 13 -198 15
-245 2 -47 5 -98 7 -115 2 -29 0 -30 -58 -41 -1208 -226 -2636 -460 -3415
-558 -682 -87 -735 -91 -1140 -91 -462 0 -635 18 -1000 101 -373 86 -679 216
-973 412 -318 212 -542 463 -709 797 -67 132 -138 335 -161 460 -30 158 -40
360 -28 557 18 270 50 444 120 653 67 194 137 315 261 448 207 222 456 328
875 372 83 8 163 18 178 21 31 6 61 34 83 77 18 33 9 53 -48 106 -39 36 -64
47 -81 33 -7 -6 -86 -20 -177 -31 -154 -20 -374 -60 -412 -76 -13 -5 -5 22 32
117 118 302 278 642 413 878 131 230 356 570 483 730 24 30 75 95 114 144 328
414 808 865 1260 1183 352 248 759 478 1120 633 189 82 532 219 547 219 7 1
15 -16 19 -36z m3569 -78 c9 -44 35 -145 56 -224 22 -79 37 -146 35 -148 -2
-3 -36 14 -75 36 -39 23 -100 55 -136 71 -36 16 -65 34 -65 41 0 6 22 53 49
103 27 50 62 122 77 160 31 78 34 76 59 -39z m-417 -390 c240 -58 420 -162
593 -342 95 -99 143 -168 205 -292 186 -376 156 -810 -80 -1165 -62 -93 -229
-261 -325 -325 -98 -67 -240 -129 -369 -163 -104 -28 -133 -31 -267 -32 -337
-1 -611 111 -846 348 -107 107 -187 223 -242 349 -140 326 -132 680 22 992 70
141 130 223 238 326 177 169 318 245 578 309 51 13 114 18 230 19 139 1 174
-2 263 -24z m8427 -5347 c26 -86 55 -221 74 -346 19 -122 25 -500 12 -707 -49
-782 -252 -1579 -604 -2365 -28 -63 -106 -221 -173 -350 -211 -409 -393 -687
-722 -1105 -26 -33 -54 -71 -64 -85 -19 -29 -9 -38 -114 101 -233 308 -573
609 -932 826 -769 464 -1700 695 -2802 697 -350 0 -514 -9 -918 -50 -1135
-116 -2047 -412 -2705 -879 -311 -221 -600 -525 -782 -825 -158 -259 -284
-604 -325 -890 -14 -98 -30 -180 -36 -180 -2 0 -46 31 -96 68 -51 38 -127 90
-168 117 -146 94 -525 384 -685 523 -352 307 -766 731 -1067 1094 -219 263
-315 391 -596 793 -114 163 -339 528 -471 765 -136 243 -301 566 -301 589 0 7
37 11 108 11 116 0 403 21 597 44 66 8 152 17 190 21 234 20 1290 175 1840
270 143 24 332 56 420 70 157 25 429 72 695 120 74 14 203 36 285 51 83 14
233 41 335 59 102 19 273 50 380 70 390 70 689 126 890 165 113 22 270 51 350
65 80 15 262 49 405 76 659 126 789 151 1065 204 162 30 410 78 550 105 140
27 341 65 445 85 240 46 905 174 1135 219 96 19 252 49 345 66 94 17 271 51
395 75 216 43 446 86 763 142 134 24 157 26 225 16 90 -13 422 -102 930 -250
l362 -105 35 22 c37 23 48 45 48 102 0 73 -4 74 -479 212 -142 41 -293 82
-334 91 -105 23 -109 24 -90 35 39 21 999 186 1280 219 96 11 189 22 205 24
77 10 72 14 100 -75z m-15790 -1498 c28 -25 106 -85 175 -132 463 -318 1018
-500 1692 -555 l207 -18 37 -80 c351 -760 907 -1629 1439 -2248 66 -77 156
-183 201 -236 110 -130 496 -524 629 -641 60 -52 140 -124 179 -158 94 -85
423 -347 561 -448 784 -574 1677 -985 2564 -1183 l165 -37 61 -139 c33 -77 85
-189 114 -248 29 -60 51 -110 49 -110 -2 -1 -906 0 -2009 3 l-2006 5 -59 44
c-211 159 -545 447 -774 667 -58 56 -128 120 -155 142 -28 21 -96 88 -150 147
-55 60 -147 158 -205 219 -568 600 -1079 1275 -1557 2056 -174 286 -484 866
-599 1122 -25 57 -54 121 -65 144 -65 144 -203 477 -237 574 -23 63 -57 156
-76 207 -64 167 -192 616 -236 828 -11 55 -23 111 -26 124 -5 22 -4 23 13 11
10 -8 41 -35 68 -60z m-2148 -1511 c327 -27 633 -125 860 -276 91 -61 244
-195 322 -282 193 -218 321 -485 385 -803 71 -351 53 -733 -49 -1043 -104
-320 -303 -604 -531 -763 -93 -65 -94 -66 -94 -105 0 -27 7 -41 31 -61 17 -14
35 -26 40 -26 32 0 153 83 236 163 l42 41 53 -29 c212 -113 368 -275 368 -381
0 -141 -200 -229 -566 -250 -188 -11 -511 25 -652 72 -75 26 -148 78 -171 123
-18 32 -6 128 17 140 9 5 49 11 88 13 100 7 128 23 132 74 2 28 -3 48 -16 64
l-19 24 -124 -13 c-68 -7 -146 -15 -174 -17 -27 -2 -86 -6 -130 -9 -75 -5
-253 6 -337 21 -31 5 -39 3 -60 -21 -36 -41 -39 -60 -17 -89 30 -38 50 -46
140 -56 71 -8 88 -14 148 -55 67 -44 109 -88 132 -137 29 -64 -45 -164 -157
-214 -145 -64 -461 -100 -804 -91 -259 7 -410 32 -564 93 -193 78 -326 189
-326 273 0 112 102 183 339 237 57 13 108 29 113 36 4 7 8 32 8 56 0 47 8 40
-122 112 -78 43 -253 216 -322 317 -45 67 -48 74 -37 104 14 42 14 70 -3 92
-10 13 -47 22 -152 37 -77 10 -173 26 -214 35 -232 48 -493 173 -536 257 -14
26 -14 32 0 52 30 47 65 51 204 28 153 -26 578 -72 667 -72 71 0 66 -6 80 82
7 44 -4 52 -80 63 -27 4 -61 12 -74 17 l-24 9 6 247 c7 274 15 348 51 491 41
161 73 248 151 406 202 408 545 718 993 899 183 74 353 109 599 125 12 0 80
-4 150 -10z m13075 -554 c374 -23 836 -98 1143 -186 486 -140 862 -311 1227
-556 228 -154 474 -367 607 -528 81 -97 231 -293 231 -302 0 -27 -248 -280
-450 -459 -47 -42 -291 -236 -395 -316 -106 -80 -335 -229 -515 -336 -160 -95
-535 -290 -587 -306 -26 -8 -29 2 -43 174 -27 346 -141 689 -328 984 -147 232
-353 450 -580 615 -342 247 -762 391 -1193 408 -718 28 -1407 -294 -1833 -856
-220 -290 -354 -593 -423 -956 -24 -126 -30 -541 -9 -680 9 -61 16 -116 16
-124 0 -23 -96 -4 -340 65 -363 104 -595 188 -925 334 -221 97 -575 281 -592
307 -13 20 -14 41 -4 154 41 461 229 883 565 1266 189 215 387 381 651 544
723 445 1699 697 2955 762 174 9 603 5 822 -8z m-659 -1040 c437 -81 799 -267
1097 -565 305 -305 508 -718 559 -1140 30 -246 31 -296 6 -478 -38 -270 -79
-417 -174 -617 -290 -610 -849 -1029 -1509 -1131 -147 -23 -431 -22 -581 0
-353 54 -629 174 -936 407 -120 92 -180 148 -263 246 -270 318 -401 600 -477
1028 -66 370 7 813 196 1187 144 287 400 575 664 750 241 159 561 283 820 317
44 6 94 13 110 15 70 10 404 -3 488 -19z m-10353 -119 c-23 -105 -127 -268
-252 -394 -34 -34 -65 -59 -69 -55 -4 5 -4 29 1 55 5 26 12 82 15 125 3 43 8
106 11 140 l6 63 91 45 c78 38 195 78 205 70 1 -1 -2 -23 -8 -49z m-1809
-2117 c87 -43 248 -95 364 -115 79 -14 157 -18 375 -18 298 0 392 10 534 60
38 13 75 24 82 24 25 0 111 -258 140 -420 27 -147 25 -497 -4 -652 -83 -453
-343 -876 -703 -1148 -132 -99 -201 -141 -344 -211 -188 -90 -348 -135 -596
-165 -412 -51 -853 59 -1224 303 -334 220 -595 558 -729 941 -57 165 -112 468
-108 602 6 197 47 428 114 637 l33 102 45 -30 c120 -82 324 -160 510 -196 82
-15 148 -18 470 -18 349 1 383 2 485 23 307 63 485 168 485 286 0 14 2 26 5
26 3 0 33 -14 66 -31z m1714 -108 c55 -11 222 -44 370 -75 149 -30 504 -103
790 -161 286 -58 563 -114 615 -125 52 -11 205 -42 340 -70 135 -28 288 -60
340 -70 52 -11 264 -55 470 -99 206 -44 463 -98 570 -121 359 -75 527 -120
517 -138 -3 -4 -22 -36 -44 -72 -69 -113 -76 -142 -71 -287 6 -151 23 -207 96
-304 101 -135 274 -253 450 -305 54 -16 62 -22 57 -39 -7 -24 -53 -257 -89
-450 -109 -593 -176 -1186 -180 -1612 -1 -57 -4 -103 -7 -103 -3 0 -55 32
-115 71 -253 165 -504 262 -769 298 -239 32 -302 33 -500 12 -221 -23 -219
-24 -401 52 -71 30 -214 89 -319 132 -232 95 -1094 453 -1300 540 -432 182
-816 344 -945 400 -519 224 -580 252 -580 266 0 5 24 26 54 48 73 54 201 201
298 341 186 270 312 592 352 901 15 116 16 134 18 274 3 242 -40 500 -117 698
-4 9 -6 17 -4 17 2 0 49 -9 104 -19z m12165 -740 c58 -52 266 -205 410 -302
164 -111 522 -314 712 -403 546 -260 1099 -434 1698 -535 402 -68 750 -86
1160 -60 91 5 197 12 235 14 39 3 158 11 265 20 156 12 852 38 856 32 4 -8
113 -464 148 -622 143 -642 281 -1461 336 -2000 41 -408 46 -465 55 -620 2
-49 10 -187 17 -305 7 -118 13 -417 13 -663 0 -387 -2 -449 -15 -457 -8 -5
-10 -10 -5 -10 7 0 7 -47 2 -137 -5 -76 -8 -147 -8 -158 1 -39 -30 -322 -55
-505 -118 -865 -353 -1567 -719 -2150 -158 -253 -297 -424 -534 -660 -302
-301 -545 -475 -956 -685 -576 -293 -1279 -471 -2135 -540 -475 -38 -1420 -48
-1420 -15 0 3 27 47 60 97 124 189 254 474 345 754 145 451 240 1025 285 1724
20 317 8 884 -26 1170 -8 72 -19 170 -25 220 -12 118 -94 550 -114 603 -7 19
27 15 221 -24 566 -113 1141 -302 1732 -569 213 -95 227 -98 278 -44 33 34 37
82 12 121 -49 75 -892 421 -1235 508 -24 6 -43 14 -43 19 0 4 14 47 30 97 125
368 172 638 172 989 0 233 -17 408 -58 584 -8 35 -13 65 -11 67 2 2 30 -1 63
-6 389 -62 796 -85 1214 -67 204 8 244 19 269 71 18 38 0 99 -34 122 -36 24
-134 28 -312 15 -333 -26 -954 25 -1390 114 -839 172 -1598 512 -2300 1032
-63 46 -142 107 -176 136 -34 29 -85 70 -112 92 -28 21 -111 94 -185 161 -373
338 -716 738 -1007 1174 -179 268 -374 620 -335 605 50 -20 209 -56 287 -65
147 -19 502 -16 629 4 677 107 1263 509 1591 1089 l27 49 32 -29 c17 -17 42
-40 56 -52z m-3712 -294 c29 -43 242 -254 308 -305 104 -81 272 -189 377 -242
l109 -54 44 -88 c24 -48 44 -92 44 -98 0 -17 -175 -12 -217 5 -21 9 -72 43
-114 75 -173 134 -383 220 -608 249 -121 16 -204 14 -333 -8 -221 -38 -400
-113 -559 -234 l-91 -69 -61 6 c-34 3 -296 10 -582 16 -286 5 -680 15 -875 20
-195 6 -406 13 -468 14 -487 14 -647 34 -870 107 -129 42 -175 63 -253 115
-140 93 -199 195 -199 344 0 62 3 73 33 112 18 23 44 48 57 55 20 10 473 13
2130 13 l2105 0 23 -33z m7342 -155 c888 -7 1657 -16 1708 -21 81 -9 102 -15
158 -48 77 -46 88 -72 89 -208 0 -69 -4 -98 -19 -125 -25 -48 -74 -98 -116
-120 -86 -44 -140 -51 -525 -60 -375 -9 -475 -16 -475 -30 0 -5 -37 -8 -82 -7
-46 1 -155 -4 -243 -12 -97 -9 -295 -15 -500 -15 -386 -1 -512 11 -895 85
-409 80 -733 174 -1125 326 -154 60 -515 231 -515 244 0 5 208 7 463 5 254 -2
1189 -8 2077 -14z m-7395 -518 c413 -72 699 -323 839 -739 19 -55 30 -102 25
-103 -5 -2 -33 12 -62 31 -244 160 -448 261 -667 329 -52 16 -171 47 -265 68
-334 76 -557 106 -689 95 l-79 -7 22 30 c82 116 322 245 545 291 113 24 214
26 331 5z m-3440 -224 c193 -21 583 -36 1270 -49 410 -8 505 -16 505 -41 0 -4
-21 -15 -47 -25 -76 -29 -313 -149 -435 -222 -342 -202 -605 -408 -878 -689
-183 -188 -273 -295 -389 -462 -192 -275 -358 -597 -436 -842 -10 -30 -21 -59
-25 -63 -10 -12 -69 65 -81 105 -13 47 -11 202 6 513 16 298 16 292 45 525 52
417 85 622 167 1043 l47 239 35 -6 c20 -4 117 -15 216 -26z m4484 -137 c17
-16 69 -93 117 -173 147 -246 294 -456 482 -690 130 -162 464 -532 540 -596
37 -32 101 -91 142 -130 114 -109 179 -165 308 -267 771 -614 1550 -989 2483
-1196 l97 -22 26 -107 c34 -139 56 -281 64 -412 5 -92 6 -139 2 -275 -6 -231
-66 -542 -149 -773 -65 -181 -55 -164 -98 -147 -82 31 -552 133 -694 150 -31
4 -61 10 -66 13 -6 4 -30 61 -53 127 -162 460 -344 804 -585 1105 -314 392
-715 658 -1178 779 -149 40 -204 48 -385 61 -255 19 -570 -11 -841 -80 -147
-37 -200 -56 -362 -126 l-131 -57 -87 6 c-47 3 -162 13 -256 21 -261 24 -525
45 -690 56 -494 33 -1553 40 -2010 15 -249 -14 -506 -38 -547 -51 -83 -26
-139 -469 -117 -929 47 -992 604 -2006 1389 -2527 127 -85 377 -218 408 -218
11 0 13 -9 8 -42 -18 -114 -27 -348 -27 -700 0 -214 -1 -388 -4 -388 -2 0 -50
15 -107 34 -296 98 -596 257 -903 480 -242 176 -617 534 -803 768 -148 186
-137 160 -123 291 21 207 26 389 26 962 -1 626 -7 728 -64 1068 -92 545 -260
1017 -495 1390 l-68 108 17 67 c26 104 111 323 184 477 165 343 363 616 671
926 371 372 740 620 1340 899 52 24 99 46 103 48 5 2 -12 -23 -37 -57 -115
-157 -116 -322 -3 -433 l51 -49 7 -132 c8 -154 33 -270 90 -411 67 -169 125
-253 274 -401 131 -131 269 -217 418 -260 73 -21 112 -13 138 28 24 39 21 98
-10 171 l-21 49 46 -7 c102 -14 117 -22 138 -73 29 -73 102 -207 125 -227 19
-17 33 -18 133 -13 157 8 284 42 435 117 179 88 298 184 440 353 44 52 72 77
86 77 34 0 119 44 154 79 54 53 76 129 76 256 1 95 -3 119 -25 175 -20 49 -29
98 -38 205 -6 77 -19 174 -27 215 -18 93 -72 239 -124 335 -21 41 -39 76 -39
79 0 3 27 6 60 6 51 0 64 -4 89 -27z m-1760 -173 c186 -11 389 -47 656 -115
285 -73 481 -163 718 -328 222 -155 334 -345 267 -454 -36 -60 -82 -41 -263
104 -432 349 -1017 537 -1739 560 l-210 6 -10 26 c-22 59 12 124 92 174 56 34
209 43 489 27z m-66 -465 c419 -40 830 -171 1112 -353 56 -36 200 -143 322
-239 23 -18 8 -47 -59 -118 -145 -156 -362 -272 -568 -305 -36 -5 -68 -10 -73
-10 -21 0 -106 259 -107 325 0 15 17 29 65 53 56 27 68 38 92 84 52 101 28
215 -62 303 -133 129 -515 227 -692 176 -51 -14 -133 -77 -162 -124 -26 -43
-28 -116 -4 -201 13 -48 29 -72 78 -125 l61 -66 18 -111 c10 -60 17 -119 15
-129 -6 -27 -171 133 -239 230 -105 153 -180 382 -180 554 l0 84 113 -6 c61
-4 183 -14 270 -22z m337 -310 c157 -43 285 -112 265 -144 -3 -6 -26 -11 -49
-11 -36 0 -51 -6 -86 -38 -42 -37 -43 -38 -48 -117 -2 -44 -10 -83 -16 -87
-15 -11 -164 -10 -170 1 -3 4 -11 61 -18 125 l-12 116 -78 65 c-43 36 -78 72
-78 79 0 7 15 21 33 30 42 22 128 15 257 -19z m-12514 -137 c58 -50 108 -97
111 -105 5 -12 -15 -83 -83 -292 -16 -51 -18 -81 -5 -81 5 0 16 -2 23 -5 10
-4 19 10 30 47 65 211 81 264 85 271 5 9 52 -53 77 -101 9 -17 25 -75 35 -129
11 -54 39 -152 62 -218 39 -113 42 -128 47 -257 l5 -138 -49 -2 c-96 -4 -109
-4 -120 0 -7 2 -15 23 -19 47 -7 52 -58 133 -97 154 -24 14 -29 13 -67 -12
-22 -15 -42 -23 -44 -19 -4 6 -15 56 -43 190 -2 12 -12 22 -20 22 -14 0 -15
-23 -9 -218 l7 -218 -78 -18 c-44 -10 -92 -22 -107 -26 -20 -7 -29 -6 -32 3
-2 7 -6 77 -10 157 -6 126 -10 153 -32 203 l-26 57 31 68 c16 37 33 77 37 90
8 28 19 28 38 -2 20 -29 106 -101 113 -93 9 9 -23 75 -66 134 -22 31 -40 65
-40 75 0 10 15 71 34 136 19 64 42 153 51 196 21 95 44 176 51 176 2 0 52 -41
110 -92z m7771 -708 c615 -55 1141 -443 1476 -1090 170 -327 271 -645 361
-1137 68 -365 83 -1356 31 -1978 -48 -582 -166 -1078 -345 -1452 -189 -394
-455 -677 -793 -842 -186 -90 -445 -159 -682 -181 -192 -18 -638 -8 -697 15
-21 8 -23 53 -8 134 6 31 6 68 1 91 -8 37 -7 40 41 87 52 51 98 131 98 170 0
41 -30 96 -74 138 l-43 40 13 137 c26 275 54 858 54 1120 l0 136 51 11 c28 6
59 16 70 21 45 24 63 114 35 169 -14 26 -13 30 14 63 16 19 52 53 81 74 65 49
79 79 67 147 -9 50 -15 99 -17 144 -1 12 -12 35 -26 51 -27 33 -35 108 -13
130 9 9 9 17 -1 36 -10 18 -10 29 -2 44 6 12 12 73 12 139 1 108 -2 131 -40
273 -65 247 -62 240 -101 269 -19 14 -69 58 -111 97 -82 77 -107 91 -137 75
-28 -15 -231 -286 -263 -351 -34 -67 -82 -182 -114 -270 -16 -46 -23 -89 -24
-145 -1 -44 -6 -118 -12 -165 -9 -65 -9 -85 0 -88 8 -3 5 -10 -8 -19 -11 -7
-33 -34 -47 -59 -22 -37 -25 -52 -20 -89 4 -24 19 -61 33 -82 l26 -38 -18 -51
c-28 -84 3 -161 79 -193 38 -17 44 -24 50 -59 3 -22 17 -54 31 -70 13 -16 23
-31 21 -33 -2 -2 -9 -110 -15 -239 -6 -129 -18 -341 -26 -470 -28 -443 -37
-595 -39 -645 l-1 -50 -109 -3 c-101 -2 -108 -1 -101 15 7 19 8 300 1 311 -2
4 -7 44 -10 90 -17 232 -138 588 -271 794 -254 392 -578 642 -1022 790 l-93
31 5 176 c23 668 123 1264 305 1811 88 266 153 425 261 637 374 738 891 1185
1508 1303 196 38 367 47 558 30z m-7688 -277 c12 -43 3 -58 -28 -48 -23 7 -27
35 -11 66 16 29 28 23 39 -18z m330 -103 c15 0 69 -76 60 -84 -5 -4 -160 -23
-254 -31 -85 -8 -212 -34 -365 -74 -159 -43 -160 -43 -160 19 0 39 4 52 19 60
43 23 340 90 440 100 174 17 185 17 215 14 16 -2 36 -4 45 -4z m98 -204 c11
-32 11 -42 1 -52 -7 -7 -63 -26 -124 -43 -240 -67 -410 -133 -544 -210 -48
-28 -92 -51 -98 -51 -17 0 -42 42 -42 71 0 67 320 216 650 303 125 33 139 31
157 -18z m-696 -101 c-35 -19 -71 -40 -80 -48 -36 -31 -41 -30 -41 12 0 38 2
41 28 42 15 0 52 7 82 14 81 18 81 18 11 -20z m649 -91 c0 -20 -11 -54 -24
-71 -1 -1 -109 -20 -241 -43 -132 -22 -248 -43 -257 -46 -43 -13 -11 9 65 45
133 63 364 139 430 140 23 1 27 -3 27 -25z m-31 -188 c12 -18 21 -38 21 -43 0
-18 -50 -32 -200 -58 -80 -14 -191 -36 -248 -50 -125 -30 -138 -31 -152 -4
-29 54 10 92 120 115 93 20 387 71 417 73 14 1 28 -10 42 -33z m14651 -11
c179 -20 270 -39 420 -87 163 -53 316 -127 470 -229 105 -69 154 -111 301
-258 112 -112 203 -214 251 -281 308 -426 528 -969 637 -1572 35 -194 76 -491
91 -663 29 -333 21 -1019 -15 -1320 -8 -66 -22 -183 -30 -260 -54 -473 -171
-963 -321 -1341 -40 -102 -157 -334 -220 -435 -201 -324 -484 -589 -799 -746
-226 -113 -533 -198 -805 -222 -147 -14 -612 -14 -755 -1 -324 30 -698 130
-936 251 -415 209 -743 529 -976 954 -193 351 -327 814 -373 1293 -33 345 -24
1094 15 1237 7 28 19 111 25 185 6 74 22 191 35 260 13 69 34 177 45 240 80
435 227 909 409 1318 173 387 446 785 717 1042 333 316 734 524 1162 601 266
48 440 57 652 34z m-2560 -169 c510 -32 867 -60 876 -69 3 -2 -28 -29 -68 -59
-524 -395 -971 -1109 -1226 -1958 -108 -359 -182 -702 -256 -1175 -2 -16 -5
-32 -5 -33 -2 -9 -225 116 -312 173 -144 96 -250 184 -399 334 -431 433 -741
1026 -864 1656 -60 305 -63 819 -8 1075 l8 35 149 12 c308 26 528 31 1185 28
453 -3 756 -9 920 -19z m-12340 -23 c0 -5 7 -46 15 -93 35 -194 66 -424 75
-555 18 -250 30 -378 50 -515 36 -252 43 -365 35 -572 l-7 -198 -44 0 -43 0 1
288 c0 324 -20 572 -72 857 -16 89 -36 224 -44 300 -25 224 -56 457 -62 466
-3 5 5 13 18 18 28 12 78 14 78 4z m2835 -938 c280 -48 530 -160 719 -321 317
-271 544 -632 600 -959 21 -121 36 -297 36 -426 l0 -107 -57 -6 c-147 -18
-379 -88 -518 -159 -139 -70 -140 -70 -305 -30 -140 33 -151 34 -300 30 -124
-4 -174 -9 -250 -30 -120 -31 -374 -126 -552 -206 -75 -33 -140 -61 -146 -61
-5 0 -28 55 -52 123 -57 164 -125 301 -219 444 -62 93 -108 147 -217 254 -191
186 -344 284 -604 384 -52 20 -98 39 -102 43 -10 10 40 140 93 246 154 306
459 550 851 680 154 51 275 79 449 102 68 9 149 20 179 25 82 12 231 2 395
-26z m4178 -972 c73 -73 88 -106 143 -323 25 -99 26 -113 20 -254 -8 -171 -21
-216 -60 -216 -15 0 -26 6 -27 13 -1 6 -2 19 -3 27 -2 8 -3 23 -4 32 -3 23
-68 95 -103 114 -80 41 -138 -4 -182 -144 l-22 -67 -90 0 c-90 0 -90 0 -88 25
1 14 6 88 11 165 10 157 27 211 125 403 45 88 190 291 208 292 4 0 36 -30 72
-67z m-6493 -163 c384 -34 686 -173 945 -434 157 -157 209 -229 299 -411 133
-269 209 -560 221 -853 3 -70 8 -151 10 -180 l5 -52 -41 30 c-63 46 -82 41
-174 -43 -202 -184 -419 -343 -565 -411 -55 -26 -77 -30 -140 -30 -121 1 -356
71 -531 159 -268 135 -546 324 -812 552 -59 51 -116 93 -126 93 -17 0 -91 -65
-91 -80 0 -44 270 -275 518 -444 232 -158 502 -302 675 -360 89 -29 253 -64
342 -72 137 -13 319 64 535 227 164 124 303 242 365 311 l45 51 -5 -59 c-16
-163 -48 -308 -102 -464 -75 -216 -232 -481 -379 -641 -74 -81 -87 -103 -79
-138 9 -40 20 -48 108 -70 93 -24 147 -51 180 -90 96 -114 33 -255 -144 -322
-60 -23 -208 -54 -310 -64 l-66 -7 -21 59 c-14 37 -36 73 -62 98 -22 21 -40
42 -40 46 0 4 12 10 26 13 67 17 98 102 54 146 -25 25 -34 23 -229 -26 -73
-19 -140 -34 -148 -34 -21 0 -12 33 37 140 48 105 64 168 58 224 -3 24 -1 51
4 59 14 25 -43 138 -95 191 -90 90 -265 156 -532 202 -74 13 -159 18 -325 18
-210 1 -229 -1 -279 -21 -131 -54 -171 -114 -177 -265 -4 -88 -5 -94 -36 -126
-62 -64 -75 -66 -187 -36 -54 14 -103 29 -110 33 -9 6 -4 30 16 90 25 76 26
85 12 110 -20 36 -78 50 -113 28 -36 -24 -98 -226 -177 -570 -13 -58 -28 -101
-36 -104 -39 -15 -105 117 -127 254 -14 84 -13 100 3 195 21 113 54 222 107
341 40 91 42 115 13 151 -22 28 -53 33 -94 14 -40 -18 -124 -209 -140 -320 -4
-27 -10 -48 -14 -48 -11 0 -77 139 -109 230 -51 147 -92 411 -92 596 0 129 36
440 64 559 81 336 218 620 412 855 351 427 879 673 1514 708 14 1 77 -3 140
-8z m6448 -598 c3 -41 2 -42 -29 -42 -30 0 -31 1 -25 32 14 69 49 75 54 10z
m17201 -109 c163 -33 338 -156 437 -305 153 -230 162 -542 23 -780 -39 -67
-140 -178 -209 -230 -55 -41 -169 -95 -250 -117 -260 -72 -588 42 -757 264
-92 120 -163 316 -163 447 1 305 218 609 501 702 137 46 264 51 418 19z
m-16929 -32 c5 -11 10 -31 10 -45 0 -21 -6 -26 -32 -30 -69 -10 -331 -26 -524
-32 -201 -7 -202 -7 -209 15 -3 12 -4 35 0 51 6 25 12 30 48 35 72 10 344 22
524 24 161 1 173 0 183 -18z m-2500 -97 c189 -32 421 -113 568 -197 284 -163
492 -365 649 -632 90 -154 176 -393 208 -580 22 -130 35 -369 25 -454 -9 -67
-14 -74 -74 -117 -19 -13 -19 -15 -3 -48 27 -58 49 -67 147 -56 174 17 472 23
563 10 53 -7 87 -17 87 -24 0 -23 -127 -136 -210 -186 -47 -29 -200 -108 -340
-176 -382 -187 -384 -188 -389 -215 -3 -25 26 -89 41 -89 19 0 4 -52 -46 -155
-66 -138 -164 -290 -241 -375 -107 -118 -99 -105 -85 -140 15 -35 54 -70 80
-70 10 0 53 34 96 75 89 84 100 87 190 53 119 -46 162 -122 130 -230 -47 -162
-196 -280 -458 -363 -147 -47 -262 -65 -448 -72 -198 -7 -316 4 -466 42 -168
42 -298 125 -343 218 -26 54 -27 87 -1 119 28 36 143 93 230 113 125 29 140
38 140 80 0 83 -48 106 -161 78 -114 -28 -373 -23 -602 11 -98 14 -182 26
-187 26 -18 0 -80 -62 -80 -80 0 -31 55 -67 129 -84 39 -9 75 -16 80 -16 6 0
36 -9 66 -21 245 -92 188 -330 -98 -406 -87 -23 -440 -23 -582 1 -326 54 -544
134 -667 245 -60 54 -108 146 -108 206 0 49 38 133 76 170 58 55 107 69 239
69 124 -1 127 -1 282 -65 31 -12 34 -12 64 16 59 57 59 55 -50 170 -88 92
-211 253 -211 275 0 4 7 13 15 20 8 7 15 27 15 46 0 53 -59 81 -112 53 -12 -6
-62 -48 -112 -92 -103 -90 -171 -137 -262 -178 -79 -36 -93 -36 -128 0 -31 33
-30 42 12 126 58 116 179 271 321 410 88 86 124 135 116 156 -3 8 -20 24 -39
37 -66 45 -80 68 -88 145 -29 267 -28 485 3 692 30 210 128 478 241 660 150
242 272 371 495 524 229 158 532 266 803 288 41 3 77 8 80 11 10 9 307 -8 400
-24z m2510 -73 c0 -12 -39 -58 -40 -46 0 26 14 55 26 55 8 0 14 -4 14 -9z
m-227 -11 c74 -11 167 -46 167 -63 0 -19 -51 -77 -68 -77 -9 0 -100 18 -202
40 -418 91 -424 93 -205 100 88 3 178 7 200 8 22 1 71 -3 108 -8z m-3871 -79
c31 -6 76 -18 99 -28 l41 -18 -48 -32 c-119 -77 -252 -223 -382 -417 -98 -147
-150 -256 -218 -461 -31 -93 -63 -175 -71 -182 -24 -19 -171 -34 -302 -31
l-125 3 -2 285 c-2 249 -5 303 -26 428 l-24 144 95 48 c176 88 537 222 686
255 72 16 198 18 277 6z m3500 -45 c62 -13 168 -32 236 -42 77 -11 119 -21
113 -27 -13 -13 -385 -2 -434 13 -38 11 -60 41 -50 68 7 16 3 16 135 -12z
m256 -163 c111 -3 205 -10 208 -14 2 -4 -1 -19 -7 -33 l-12 -26 -176 0 c-154
1 -254 9 -265 21 -2 2 -7 19 -11 38 l-7 34 33 -7 c19 -4 125 -9 237 -13z m-48
-377 c0 -284 -34 -956 -57 -1122 -5 -40 -8 -45 -27 -40 -12 3 -32 6 -45 6 -24
0 -24 0 -17 88 3 48 11 170 16 272 6 102 15 241 20 310 5 69 14 226 20 350 5
124 13 255 16 293 l6 67 34 0 34 0 0 -224z m3435 -480 c394 -320 884 -585
1252 -678 l90 -23 17 -120 c10 -66 20 -135 23 -152 l5 -33 -131 0 c-109 0
-133 3 -138 15 -4 13 -18 15 -77 9 -39 -3 -123 -1 -186 4 -63 6 -277 16 -475
22 -198 6 -382 15 -410 20 -60 11 -691 30 -1007 31 -126 0 -228 3 -228 6 0 4
18 29 39 57 223 290 398 715 494 1201 20 99 39 208 43 242 l7 63 263 -269
c183 -187 312 -308 419 -395z m-7739 -278 c-4 -24 -9 -70 -11 -103 -1 -33 -6
-104 -10 -157 l-8 -97 -46 -8 c-71 -12 -214 -7 -273 11 l-53 15 -48 94 c-47
91 -48 95 -37 143 5 27 17 69 26 93 l16 43 42 -7 c104 -19 308 -12 405 14 2 1
1 -18 -3 -41z m-537 -445 c6 -39 11 -84 11 -99 l0 -27 -71 6 c-39 3 -73 8 -76
10 -5 6 62 141 90 181 25 35 31 26 46 -71z m-1796 -7 c306 -49 476 -127 528
-241 33 -71 20 -165 -39 -281 -38 -76 -53 -89 -83 -74 -16 9 -32 9 -65 0 -73
-21 -192 -7 -365 40 l-154 43 0 61 c-1 61 -33 146 -55 146 -17 0 -23 -50 -10
-95 14 -50 7 -95 -15 -95 -15 0 -256 58 -260 62 -2 2 -14 26 -28 54 -14 28
-37 64 -50 80 -40 48 -49 74 -50 136 -1 98 15 93 74 -23 53 -106 106 -189 121
-189 18 0 6 55 -27 126 -24 52 -51 91 -89 128 -51 49 -54 54 -41 73 18 26 74
53 134 63 69 13 362 4 474 -14z m2129 -82 c4 -3 15 -29 23 -59 14 -47 14 -58
2 -88 -33 -78 -120 -123 -282 -147 -44 -6 -116 -10 -160 -7 -76 4 -205 23
-214 32 -2 2 9 30 24 61 31 63 24 62 144 29 88 -23 157 -17 218 21 49 31 65
59 78 138 l6 39 77 -7 c42 -4 79 -9 84 -12z m208 -89 c0 -63 -4 -105 -10 -105
-6 0 -10 42 -10 105 0 63 4 105 10 105 6 0 10 -42 10 -105z m-4175 -49 l170
-43 -3 -64 c-4 -92 17 -243 45 -322 14 -38 22 -71 19 -75 -8 -7 -461 103 -533
130 -67 25 -126 88 -149 161 l-17 55 28 65 c64 151 145 168 440 93z m1189
-213 c71 -193 143 -328 248 -459 134 -169 334 -356 524 -491 92 -66 174 -141
174 -161 0 -5 -9 -17 -20 -27 -18 -16 -25 -17 -63 -5 -40 12 -195 116 -302
204 -185 151 -382 360 -480 511 -107 163 -207 404 -185 444 10 20 57 61 69 61
4 0 19 -35 35 -77z m-223 -31 c4 -4 23 -52 44 -107 20 -55 61 -147 91 -204 43
-81 52 -106 42 -113 -42 -28 -94 -49 -112 -45 -50 11 -421 108 -423 111 -2 2
3 21 11 43 8 22 24 89 36 149 19 98 47 209 56 225 4 7 245 -49 255 -59z m679
-7 c0 -8 -4 -17 -10 -20 -6 -4 -10 5 -10 20 0 15 4 24 10 20 6 -3 10 -12 10
-20z m6739 -70 c-4 -38 -13 -140 -19 -225 -6 -85 -23 -267 -38 -405 -21 -205
-26 -300 -27 -525 0 -171 -4 -278 -10 -282 -29 -22 -135 3 -135 31 0 9 11 89
25 177 13 87 34 277 45 421 11 143 25 299 30 345 6 45 12 162 16 258 3 96 7
185 10 197 3 14 24 34 56 52 29 17 53 29 54 28 1 -1 -2 -33 -7 -72z m-6870
-60 c75 -19 147 -38 159 -41 19 -5 0 -15 -90 -44 -62 -21 -119 -39 -127 -41
-9 -3 -30 24 -57 71 -24 41 -43 78 -44 83 0 12 15 9 159 -28z m754 -117 c14
-13 28 -35 31 -50 7 -33 3 -34 -124 -43 -210 -15 -481 -62 -571 -99 -21 -9
-96 94 -77 105 13 7 86 24 249 59 47 10 130 23 185 29 90 10 135 14 246 19 26
1 44 -5 61 -20z m-1762 -202 c184 -47 355 -88 382 -91 26 -4 47 -11 47 -15 0
-4 -9 -29 -21 -55 -18 -41 -20 -58 -14 -121 l7 -74 -84 0 c-265 0 -617 95
-702 189 -24 27 -25 98 -1 184 13 50 22 67 35 67 10 0 168 -38 351 -84z m2053
54 c118 -44 174 -161 138 -285 -14 -47 -63 -102 -109 -121 -63 -27 -137 -17
-445 60 -164 41 -317 84 -341 95 -46 22 -127 91 -127 107 0 29 240 78 437 88
168 9 213 20 243 57 24 30 27 30 88 24 35 -3 87 -15 116 -25z m-1310 -134 c14
-25 23 -51 20 -60 -5 -14 -132 -124 -183 -158 -37 -25 -66 -23 -79 7 -20 43
-14 59 36 108 36 35 167 143 179 147 0 0 13 -20 27 -44z m139 -171 c20 -14 37
-30 37 -35 0 -4 -10 -21 -23 -37 -65 -78 -147 -193 -170 -238 -24 -46 -87
-215 -87 -232 0 -5 13 -15 29 -24 l28 -16 11 60 c16 86 89 226 178 341 l76 98
72 -70 c39 -38 121 -108 181 -155 61 -46 118 -94 129 -105 25 -29 17 -74 -33
-178 -36 -76 -38 -83 -20 -87 41 -11 96 69 114 166 4 20 10 39 14 42 4 2 31
-12 61 -32 l53 -35 -6 -72 c-6 -82 -37 -172 -72 -210 -18 -20 -34 -26 -64 -26
-114 0 -425 58 -566 105 -207 70 -359 173 -379 258 -8 34 14 133 50 222 25 61
31 69 72 87 25 11 63 37 86 58 67 61 169 140 181 140 6 0 27 -11 48 -25z"/>
<path d="M13535 26280 c-153 -23 -286 -126 -380 -295 -55 -97 -109 -268 -145
-453 -28 -146 -27 -157 19 -203 49 -50 102 -54 151 -12 39 32 44 46 65 164 56
333 223 604 348 568 67 -19 130 -118 161 -254 9 -38 21 -164 28 -279 l12 -208
43 -21 c38 -19 47 -19 98 -8 43 10 58 18 69 39 52 102 6 550 -74 716 -38 80
-127 179 -189 210 -37 19 -145 50 -154 45 -1 -1 -24 -5 -52 -9z"/>
<path d="M20280 21943 c-271 -3 -1222 -57 -1575 -88 -728 -66 -1526 -166
-2065 -261 -80 -14 -197 -34 -260 -45 -176 -30 -211 -45 -232 -99 -14 -37 16
-106 55 -126 35 -19 32 -19 292 30 252 47 577 98 865 136 129 17 300 39 380
50 171 23 766 86 895 95 50 4 160 13 245 20 326 30 600 44 1466 77 412 15
1139 -3 1735 -42 408 -27 411 -27 443 11 31 36 33 73 6 116 -28 46 -53 56
-170 64 -58 4 -199 15 -315 23 -505 38 -1011 49 -1765 39z"/>
<path d="M8798 23829 c-22 -13 -41 -83 -34 -124 9 -45 28 -59 141 -98 464
-162 999 -394 1600 -694 462 -231 802 -418 1163 -641 188 -116 219 -129 258
-110 34 16 62 54 70 93 11 57 -34 92 -386 302 -515 307 -1011 564 -1620 840
-440 200 -1066 443 -1138 443 -20 0 -45 -5 -54 -11z"/>
<path d="M7880 22122 c-44 -44 -50 -74 -25 -122 26 -50 61 -60 259 -76 745
-58 1724 -257 2611 -532 197 -61 594 -196 735 -249 197 -75 298 -105 330 -98
42 9 60 40 60 101 0 76 -10 82 -245 171 -452 170 -955 329 -1434 452 -724 188
-1278 290 -1986 366 -33 3 -89 8 -125 10 -36 1 -82 6 -103 10 -34 7 -40 4 -77
-33z"/>
<path d="M11275 20249 c-1497 -76 -2516 -246 -3250 -543 -138 -55 -155 -70
-155 -131 0 -40 5 -52 34 -81 21 -21 44 -34 59 -34 14 0 97 29 184 64 359 144
758 245 1363 345 231 38 620 87 805 101 77 6 176 15 220 20 96 12 533 37 850
50 127 5 237 11 246 15 24 9 39 49 39 104 0 72 -22 87 -135 94 -49 2 -166 1
-260 -4z"/>
<path d="M5360 16120 c-88 -41 -130 -104 -130 -195 0 -70 17 -112 64 -153 45
-39 67 -45 159 -40 119 6 175 62 179 184 3 64 1 72 -30 117 -66 95 -156 127
-242 87z"/>
<path d="M3886 15840 c-97 -38 -141 -107 -133 -207 6 -75 29 -118 84 -157 82
-57 198 -42 269 36 63 71 72 140 27 229 -25 47 -36 58 -92 87 -74 37 -88 38
-155 12z"/>
<path d="M4785 15070 c-188 -43 -282 -89 -392 -193 -130 -124 -197 -239 -244
-417 -18 -72 -21 -103 -17 -229 4 -133 7 -155 38 -246 39 -114 106 -222 178
-286 68 -60 210 -126 302 -140 108 -16 326 -6 425 20 298 78 442 270 496 662
25 181 -6 379 -83 539 -40 82 -149 193 -237 239 -133 70 -301 89 -466 51z
m261 -101 c85 -15 199 -73 254 -128 90 -90 169 -302 170 -453 0 -130 -54 -358
-113 -473 -76 -149 -252 -237 -504 -252 -156 -9 -277 21 -392 98 -132 88 -221
294 -221 512 0 68 7 104 35 193 57 180 142 301 273 388 89 59 156 85 277 106
121 22 144 23 221 9z"/>
<path d="M5465 5801 c-112 -69 -134 -194 -52 -287 34 -40 103 -74 145 -74 80
2 191 116 192 198 0 25 -33 97 -59 126 -48 54 -167 74 -226 37z"/>
<path d="M4164 5571 c-43 -26 -93 -90 -100 -128 -3 -18 0 -56 7 -85 16 -68 58
-111 127 -132 45 -13 59 -13 96 -2 25 8 58 23 74 35 39 27 72 96 72 147 0 44
-28 111 -56 136 -55 48 -164 63 -220 29z"/>
<path d="M9203 5508 c-11 -13 -47 -67 -79 -121 -71 -119 -121 -178 -135 -156
-5 7 -9 20 -9 27 0 6 -4 12 -9 12 -10 0 -21 -49 -21 -96 0 -43 19 -43 45 -1
11 17 35 41 54 52 65 39 101 81 160 185 32 58 57 108 54 113 -9 14 -40 7 -60
-15z"/>
<path d="M8936 5034 c-12 -91 -4 -168 17 -161 15 5 24 43 32 132 l7 75 -24 0
c-22 0 -26 -5 -32 -46z"/>
<path d="M3655 4883 c-65 -26 -94 -52 -122 -106 -24 -47 -25 -55 -14 -102 17
-71 48 -111 108 -141 65 -32 118 -28 186 16 126 79 105 260 -37 326 -60 28
-68 28 -121 7z"/>
<path d="M2265 4628 c-98 -34 -145 -160 -95 -258 35 -69 127 -119 193 -105 51
11 115 53 133 87 9 17 18 61 20 97 5 62 3 70 -26 109 -42 59 -84 82 -145 81
-27 0 -63 -5 -80 -11z"/>
<path d="M2718 2494 c-68 -70 -137 -194 -108 -194 29 0 207 210 195 230 -13
21 -44 9 -87 -36z"/>
<path d="M23383 1495 c-3 -9 -3 -18 -1 -21 3 -3 8 4 11 16 6 23 -1 27 -10 5z"/>
<path d="M220 484 c0 -181 1 -195 18 -192 13 2 19 19 27 74 6 39 18 82 28 97
16 25 61 46 73 34 4 -3 8 -42 10 -87 5 -85 17 -124 37 -117 9 3 11 32 8 98 -4
96 -13 138 -34 151 -22 14 -64 8 -90 -12 -14 -11 -28 -20 -31 -20 -4 0 -4 24
-1 53 7 73 -3 117 -26 117 -18 0 -19 -11 -19 -196z"/>
<path d="M1742 667 c-6 -6 -20 -36 -31 -65 -12 -29 -46 -101 -76 -161 -57
-112 -69 -151 -48 -158 20 -7 200 367 187 388 -7 13 -20 11 -32 -4z"/>
<path d="M3616 658 c-9 -12 -16 -28 -16 -34 0 -7 -34 -80 -76 -164 -69 -140
-82 -180 -55 -180 21 0 197 373 185 391 -9 15 -22 10 -38 -13z"/>
<path d="M3104 645 c-4 -9 -2 -21 4 -27 15 -15 44 -1 40 19 -4 23 -36 29 -44
8z"/>
<path d="M557 624 c-4 -4 -7 -22 -7 -41 0 -31 -2 -33 -36 -33 -31 0 -35 -3
-32 -22 2 -18 11 -24 36 -26 l32 -3 0 -100 c0 -82 3 -101 16 -106 27 -10 35
18 32 114 l-3 92 35 3 c28 2 36 8 38 26 3 20 -1 22 -37 22 -39 0 -40 1 -43 37
-3 35 -17 51 -31 37z"/>
<path d="M780 591 c0 -40 -1 -41 -36 -41 -31 0 -35 -3 -32 -22 2 -18 11 -24
36 -26 l32 -3 0 -100 c0 -82 3 -101 16 -106 27 -10 35 18 32 114 l-3 92 35 3
c28 2 36 8 38 26 3 20 -1 22 -37 22 -39 0 -40 1 -43 37 -2 27 -8 39 -20 41
-15 3 -18 -4 -18 -37z"/>
<path d="M954 557 c-7 -20 0 -384 8 -392 4 -4 14 -5 23 -2 11 5 15 22 15 69
l0 63 45 -3 c40 -4 48 0 74 27 43 46 49 103 20 182 -18 47 -66 59 -131 34 -14
-6 -18 -2 -18 14 0 23 -27 29 -36 8z m146 -83 c25 -66 2 -134 -46 -134 -47 0
-54 9 -54 71 0 48 4 60 22 73 34 24 67 20 78 -10z"/>
<path d="M1298 552 c-65 -24 -90 -49 -86 -86 3 -28 9 -33 63 -51 61 -21 83
-48 53 -66 -19 -13 -82 -11 -95 2 -7 7 -19 9 -27 6 -27 -11 -18 -37 19 -53 67
-28 135 -12 155 35 21 52 -17 103 -88 117 -37 8 -42 31 -9 43 58 22 64 22 70
1 3 -11 13 -20 22 -20 13 0 16 8 13 43 -4 50 -18 55 -90 29z"/>
<path d="M2426 551 c-57 -20 -88 -54 -84 -90 3 -22 12 -29 63 -46 61 -21 83
-48 53 -66 -19 -13 -82 -11 -95 2 -15 15 -43 4 -43 -15 0 -21 52 -46 95 -46
75 0 117 46 95 104 -11 30 -65 66 -97 66 -14 0 -23 6 -23 15 0 14 14 23 66 39
16 5 23 2 27 -14 3 -11 13 -20 22 -20 13 0 16 8 13 43 -4 50 -18 55 -92 28z"/>
<path d="M1457 536 c-8 -21 19 -54 33 -40 7 7 10 20 8 30 -4 23 -33 30 -41 10z"/>
<path d="M2114 515 c-37 -39 -53 -104 -37 -152 12 -37 67 -73 110 -73 52 0
113 35 113 65 0 30 -13 32 -47 5 -32 -25 -84 -26 -114 -1 -13 11 -22 21 -19
23 3 2 36 17 73 32 37 16 72 37 78 48 25 47 -16 88 -88 88 -28 0 -43 -8 -69
-35z m116 -25 c11 -7 -1 -16 -50 -39 -35 -17 -66 -29 -68 -27 -6 7 27 64 40
69 21 9 62 7 78 -3z"/>
<path d="M2734 515 c-55 -58 -56 -153 -3 -200 30 -28 99 -31 147 -6 27 14 42
28 42 41 0 29 -18 33 -46 11 -33 -26 -85 -27 -115 -2 -13 11 -22 21 -19 23 3
2 37 18 75 34 54 24 72 37 80 58 8 25 6 31 -18 52 -44 38 -101 33 -143 -11z
m116 -25 c11 -7 -1 -16 -50 -39 -35 -17 -66 -29 -68 -27 -6 7 27 64 40 69 21
9 62 7 78 -3z"/>
<path d="M3096 504 c-9 -67 -7 -177 3 -193 5 -8 16 -11 25 -8 14 6 16 23 14
124 -3 99 -6 118 -19 121 -12 2 -18 -8 -23 -44z"/>
<path d="M3251 524 c-60 -50 -65 -151 -11 -206 40 -39 82 -38 124 5 39 38 51
90 36 147 -21 80 -89 104 -149 54z m99 -39 c18 -22 15 -103 -6 -126 -49 -54
-115 6 -93 85 14 52 70 75 99 41z"/>
<path d="M1464 386 c-10 -26 1 -51 21 -51 23 0 32 30 15 50 -16 19 -29 19 -36
1z"/>
<path d="M2974 336 c-9 -24 4 -48 23 -44 12 2 18 12 18 28 0 29 -32 41 -41 16z"/>
</g>
</svg>
